<mxfile host="app.diagrams.net" modified="2024-06-03T01:53:57.568Z" agent="Mozilla/5.0 (Windows NT 10.0; Win64; x64) AppleWebKit/537.36 (KHTML, like Gecko) Chrome/124.0.0.0 Safari/537.36" etag="oCJFBeoN0U1a0E_ZQqAy" version="24.4.13" type="github">
  <diagram name="第 1 页" id="64TC3Zte77Tn3nzAtyeK">
    <mxGraphModel dx="11550" dy="1845" grid="0" gridSize="10" guides="1" tooltips="1" connect="1" arrows="1" fold="1" page="1" pageScale="1" pageWidth="3300" pageHeight="4681" math="0" shadow="0">
      <root>
        <mxCell id="0" />
        <mxCell id="1" parent="0" />
        <mxCell id="raBx9LtuRQU_PqCKQz18-2" value="" style="shape=image;verticalLabelPosition=bottom;labelBackgroundColor=default;verticalAlign=top;aspect=fixed;imageAspect=0;image=data:image/png,iVBORw0KGgoAAAANSUhEUgAAAZAAAAEsCAYAAADtt+XCAAAAAXNSR0IArs4c6QAAAARnQU1BAACxjwv8YQUAAAAJcEhZcwAADsMAAA7DAcdvqGQAACxXSURBVHhe7Z1PyDVZda97KPREevJl0nBpsHHoMMM7zNChE8FhcHKTDKQhAzO4EAeKZJJABio4cBLpTELuwNBIkEYJGlRiCHoj0sQoyU1oMI1I+O77vN/6de+vvjrvqVNV+7xVdZ4HijpVtWvvvdZee/2q6vx7SUREREREREREREREREREREREREREREREREREREREREREREREREREREREREREREREREREREREREREREREREREREREREREevBURORgVHqT3pS/RUQOQ6U36U35W0TkMFR6k96Uv0VEDkOlN+lN+VtE5DBUepPelL9FRA5DpTfpTflbROQwVHqT3pS/RUQOQ6U36U35W0TkMFR6k96Uv0VEDkOlN+lN+VtE5DBUepPelL9FRA5DpTfpTflbROQwVHqT3pS/RUQOQ6U36U35W0TkMFR6k96Uv0VEDkOlN+lN+VtE5DBUepPelL9FRA5DpTfpTflbROQwVHqT3pS/RUQOQ6U36U35W0TkMFR6k96Uv0VEDkOlN+lN+VtE5DBUepPelL9F5JF58we/fPof//Wb2pIlVHqT3pS/ReSR+dgXvnMvIrKcSm/Sm/K3iDwy/+N/f+vpl7/zL7UlS6j0Jr0pf4vII6OArEelN+lN+VtEHhkFZD0qvUlvyt8i8sggIF/85s9qS5ZQ6U16U/4WkUcGAfns//m/tSVLqPQmvSl/Syf4VM0///t7tSVyGgVkPSq9SW/K39KJ3/nzv/exhEzipT/4GwVkJSq9SW/K39KJ//mn3zUpyCQUkPWo9Ca9KX9LJxQQmYoCsh6V3qQ35W/phAIiU1FA1qPSm/Sm/C2d8I1RmYoCsh6V3qQ35W/phAIiU1FA1qPSm/Sm/C2dQEB+7y//qbZETqOArEelN+lN+Vs6gYB86mv/UFsip0FAvNhYh0pv0pvyt3RCAZGpICDGyjpUepPelL+lEwqITEUBWY9Kb9Kb8rd0QgGRKfBzNwrIelR6k96Uv6UTCohMQQFZl0pv0pvyt3RCAZEpKCDrUulNelP+lk586DNvmRQWwMda3/vNf9fWcVFA1qXSm/Sm/C2dMCnMB+HAf7fwc/gKyLpUepPelL+lEyaF+SSpKiByKZXepDflb+kESeETX/1hbcklKCAyl0pv0pvyt3SCpMAv8srlJKm+9eP/V3uOiwKyLpXepDflb+mEAjIfBUTmUulNelP+lk4oIPP53jvv3pyAGCvrUOlNelP+lk6YFOaDcCggModKb9Kb8rd0wqQwHwVE5lLpTXpT/pZOmBTmEwH52nf/tfYcl7d/+p/GyopUepPelL+lEyaF+URAvvydf6k9xyW2GivrUOlNelP+lg78/N1fmxQWoIDIXCq9SW/K39IBn2svQwGRuVR6k96Uv6UDCsgyFBCZS6U36U35WzqggCxDAZG5VHqT3pS/pQMKyDIUEJlLpTfpTflbOqCALCNJlf8EOToKyLpUepPelL+lAxEQ/pVQLkcBkblUepPelL+lAwrIMv76R/+mgMgsKr1Jb8rf0gEFZBm896GAyBwqvUlvyt/SAQVkGQqIzKXSm/Sm/C0dUECWcWsC8luf/dunH/3c27VHllDpTXpT/pYOKCDLuDUBIU6MlXWo9Ca9KX9LBxSQZSggMpdKb9Kb8rd0QAFZhgIic6n0Jr0pf0sH+I8HnmubFOYRAXnjr35ce46LArIuld6kN+Vv6YBJYRkRkE997R9qz3ExVtal0pv0pvwtHTApLEMBkblUepPelL+lAyaFZdySgLz5g18+/dgXvmOsrESlN+lN+Vs6oIAs45YEBFv5EqGxsg6V3qQ35W/pgAKyDAVE5lLpTXpT/pYOKCDLUEBkLpXepDfl76vxH//1m3p1fBSQZSggMpdKb9Kb8vdV+NEvfnX/vYhbQQFZhgIic6n0Jr0pf18FEioJ4VZQQJbxZ9965/6C4+Nf+n7tOS4KyLpUepPelL+vQv4g6FZAQH77T/7u6Yc+81btkUvgJ0xIqixHRwFZl0pv0pvy91XIIwl+I+oWQEBICrckmmuigMhcKr1Jb8rfV0EBkUtQQGQuld6kN+Xvq6CAyCUoIDKXSm/Sm/L3VYiAfO+dd2vPsVFAlqGAyFwqvUlvyt9XIQJCYr0FFJBlKCAyl0pv0pvy91VQQOQSbk1A+L6LsbIOld6kN+Xvq/DFb/5MAZHJKCAyl0pv0pvy91UgISggMhXi5RNf/eHTj37u7dpzXBSQdan0Jr0pf1+FCAiT5RZQQJZBvJBUb+F9AQVkXSq9SW/K31fh1gTEpLAMBUTmUulNelP+vgoKiFyCAiJzqfQmvSl/XwUFRC5BAZG5VHqT3pS/r4ICIpdwSwLyx9/46dM3/urHxspKVHqT3pS/r4ICIpdwSwKCrZkfspxKb9KbN3/wy6v9S2AmCOtbQAFZhgIic6n0Jr352Be+c7XvZdyqgPCnSD9/99e1V6aigMhcKr1Jb5ic1xKQ3/2Lf7xPprcmIPj4Vn6BeE0UEJlLpTfpzTUFJMlAAZEpKCAyl0pv0hsFpB8KyDJuKakqIOtS6U16c20B4T2X3/vLf6o9x0YBWYYCInOp9Ca9Ibl97bv/Wm7vC8mU34ZifQsoIMtQQGQuld6kNyQ3Et01UEDkEvAdPrwlATFW1qHSm/RGAemHArIMBUTmUulNeqOA9EMBWYYCInOp9Ca9UUD6oYAsQwGRuVR6k95cW0D4h7nf+fO/rz3HRgFZxjUF5L3f/He9ehwUkHWp9Ca9ubaAsHAXcgvwH/B8ZNmkMI8IyIf/8Jvdf6+NX0ngd+EeCwVkXSq9SW+2ICBH/Z0ok8IyIiDX8N/Hv/T9q82DMYyVdan0Jr3ZgoB89HNvP337p/9ZW8fBpLCMawoIMamAHIdKb9KbawoI73/wqGAoIB/6zFuPOnl7YVJYhgIic6n0Jr25poAwSZkkQwHhTdI/+9Y7tXUckhT4+ZbvvfNu7ZWp3JKA8G+E/CuhArIOld6kN48tILw5ioCw/2hEQLD3Wr83diRuSUCuaestUOlNenNtAeFOg/c8ApNFAZExLk2qS/ysgByLSm/Sm2sLSCZJiIBwC380FJBlXJJU+R7HkgsRBeRYVHqT3mxFQJhAQ9h3rV8K7oECsowk1SnvISWO+JDGHI4uIAjsnufSpVR6k948toCQGE4JCI+69vzfIQrIMpJUp/jvoTiawtYE5Ee/+NWqHyyhznbeHZ1Kb9KbxxYQEsOpic83kOcmhC2ggCzjEgFJHFF2DlsTEF6v+ZM/Coh0gaDiexjX+Db4pQKyJCFsAQVkGZcICD9DwgXH3HhJbD4WQwHhZ3DWjH3uaBQQWR2CikRN0PYmiYD2wqkrRwSN/Tz/3isKyDIuEZCUm5skOZek/VjEVh7bkuyJm9/67N/W0eXgPwVEVmerAkJ/2L/noFdAlnFtAfntP/m72ro+Q1uJm3aeLGU4745OpTfpzWMLCJ8M4UqLYy30J33bKwrIMi4RkPzy8dx4oY3HvFgZ2srH2rFlrV8hVkCkC48tIEwa+sCxFn5ckSvCa/yUdy8UkGVcIiDx9VEEhF8HXnNeKiDShS0ICELRfjsdKEf5Pf+OlAIyj3yg45YFhHUPATnqXycMqfQmvXkMAeGRVQI5k2Y4eTOJ+CjjX//o32rvvsgP5MVuvsy1V1uuBX7KxUSSKr/ifO5LcBEQ4mhOLI/F4Bi9EvC1BIT1LVDpTXoTAeGTH73J5Ggn+SkBIdEiHplYe2SYFPioKR+ZltPgL+IR4r8pMXANAeECgPHrcbGlgKxLpTfpTQSk188cMOnybfJMjnaS8+Ynz3uHkzeJI1fxe2SYFLAVX9/KY4Q5MNb4iLi5RED4CRO+uc3j0Dl/TjZFQIhZ+tbjr2+HscJdGG2tLSC3cgdc6U16EwE5N0HnwmSmfpLmmIBw1YjA8GZ5SxJHPl2zR4ZJAVvxxTXu9vZKfER8XCIgQ19fyhQBSSyf68schv2nLzzqXeufOiMgPfreQn+38N8+ld6kN70FJIHLG+GnBCRJo4X+MKm4M+IZ+B4ZJoV8NJPXMk58NFdAppQdY4qAEIv0rccd8TBW6AvLWrFCPfT9Ut9c2j7180Thsan0Jr2JgJDEe0BAJWnOERCEZ6/fRh8mNdbY6Rvpp4mP5gpI4ulSpggI9dM3RG5t0v8tCUj6cQmxARDcXnnlHHe2vlUpTnpCgBBYLIFHRmt99yKTjmDM8+lMEjglIFzlZaK2n9rqBcEeUVuLYQJkjZ2XTOJbIz7iwiF+y/sbD5Gy+fDFpbQCQlu8BzOEx6lr/MAnsTZ8jJn+711AmMsREF7HV9g85tNeAoOtleKkJ0MBIVHzSZO1ApeATeDSFkl6ioBkPyA8JIa8ecl67ccIiNTawZykkDW39iSgSybxrYGviAXiI35rY4ELGy5whncB+bg38TVMegjQufcSIiDEP2M0Vp4+UCZJcS48kh3GWmxtBYQ777XesKfOzMOpkPTxBYl/LPmPgR2tgETMsYc+MAfaCzX6NLxYZXvuY7DURb2V4qQnDOy9s+8WYMB5nQS/FIKI+ghc2hoKCIkAMUC02iDlvEwyEgYiko/AEqS8HvuCIVeJBP6l0Me1n90mKbTJATt6PEM/Cvgo8Re/tbGQOEoshMQUMcSxNinxiaZzPidZUy9tnop/+kC5pXEyVkcbI7RNX3jNvjkggO18os7MwyHMmTEoyzkIcPx/DuKbfgPn5HXsYd36lvqHd/5sZ3y5G2R7ioAx5vkwDvVWipOeMKD3zr5bgEHm9dgEmgNBRH2Z+EMBycTJscB5CVoCnICiHoKE8wlqgnUYWExOlkDiOPeeQwKWPpyDsqcm3JDY1iYHlqmT8bHB1z0+svoQbfzFb20sMJ5cdAzjpY0p7iZJJHnsxdgO71gYwzbGqY/loQso+pAxXAL1D395YSgglOHC6VysDfvJozFsoJ48luVCi7qpk3ULx9k/BndKHMOf9O8cqQt/cyfHOfEVvmW+so5NlKF8O44Q+4HytD/lk13YyXn44KXf/8Z7leKkJwwQTmchYTDIvB4G2lyYdKmPtgiW9pvFmTg5FtqkgQCkjwQHyYG+IhTDuxCOEcARFsogNmNQB9Au7afeh2BSt/U/RGxrkwNL7FoKPqTeKX2ZA0k3V3RToS9z7gAD8UebjHnipI2FvB6OfRIvcB7HiZcko2ECJCkluQHjz8I+yo8JJ2PPnUN73qUQX9RPWy3US5uxgzKt3WOkrpacy0JscH7iL/tasn8IQp16WOI/9g/riN8jICzM0/gT2BcfM76MXcq38x5iA3dRlOX1FJ/nvGfrb/xzpTjpCQOK0zOQ2R4GSWASnbuibyHwqJNAZk0bCegc53WOhXbyJNBYSChMfshz7xbKcHWXNykJwLHgS3ByFUTAUWaYlGiXZNSSK1TKcS7LKWJbayNJ+ZSgXQJXZNjJMvWOCPDLUHBO2RBbcxxf0+5DdyXYyTnx/0MkBlrwEWPBMdaMTRsL8WWOheE2NpKUkwjbceQY+2gr5A6Uejg2dsVL29SX+BuDPoz5k3ihXfwybBvS/6wp09o9BuNAuTZm24st5ip9Js7jh6HPqZ/9LfQRG1MPC/UA67ZP2Jrz028WfM8ae4DX2MzCa+rIvB7O4diVsnl9jpz3LAYVkKvQDhIDmu2xyQ0EI4E5FQKOOgkY1rTBvtSf123SB8q3gUqSJAmkHmjrgfS/FRZsGT4ugEwogi4Tl/NoJ487eE2ZNiEwsbhK5jzOGas7pH9Zxw9sT4W+jCXjXLEiqEOROwUJjP63j3MeSojYxjH8k23awo5TAkFs4LNzdyH4g3Jt8gPqxq8cTzJlHBJz8WXsDynbwjn0l3Y4HmgzdyiQRJa2Gd/4iLLxb9pmDpy6U6VeFuoMSbLYkb4jWC3pf9aUH86BIfEh6xDRHy7Uy7otC9TP/jbGUy92xk+JWdZs4xf6GcEittJvlrSHT9u7LhZecxEVvw9tTPvtwnkt1IkfWxB9yj47XwG5ChlQliRgJtDYFRhX7ZRrB+5UgssEIuCokyBhzX6CJ/VnUmbihOxvYV/e+4C2HqB/HMt+2mISsAyhDJOYciQibCLhkDAzuTNZkqiYJByjHMmA1w8lk9iQdfzA9hTib86hbWxLwo3gJhk+BLZSDjs4rxU9+k+/Um8L9pE86XtsB/qTSc/408+MNwmMJQl/jAgZdQ/jrG0zMREfQi4O2KYNysAwfoAxwjfUyZp2IeNNH+g3r/EzfqAe6k57tM0xfE05zk0ct1COfiUm2jGmLHXkAoV+Uy79gfQf2xHfjHv8PAa+T72MKb6kXhb6yLEs2eaCATsy3pzL/tae2JwLhpxPWexim5jKuSzYjG3Z5ty8Tn3DhTqybmnrzUL99DlCR3+xE79F7PErZfGZAnIl2kAjgNkmSBK4JMckY9ZMxCRwBpTzGPB2MiTZMNk4Rnnqo27qaScGx5l4wwRAHwi8Fs6hHEu2Uw9BxGsCPvuZiLQ9nKzAJMIWytFO2kuwkjBoh3JJhuzLRKXe+IIEGiiTgE6dWWM/7bH9EPQVv1A/7dMPbMGO9CU2sdDfoX0B35IoqSN+oTzjGnuyv4WJynm0R2JI2RzDFvyQ2MmYUAZbEyNDsAPbsItkFl8F6oq/qHMoINlHv/AP/QBeD0UwV8eck3HF7tjEuYkR9rFNWdrCdsAvnEubaTvjmLEAymM7tnF+OyacwzHKkCzxG3W0STt1x3bajH/wPf0cwjnUS1kW2mZNHcw9+kCc5HiOYS9tpA72p31IPdhI+ZxL//Ezr+OrHGOhPG3SJ9aUYX/sycIx1ukb7bUM682S8vQzY5sF0tdnY6aAXIUMMoOeycFAECjQDj4DS0BncjEZGCzOTUAyQZmcBAnlWaiPJZOGc1iA47SbdaB86gyck/5lO/XQHgvHUh/bSRS029ZHn+k/SYD9nEffqY/klitNxIGyHGMSI1DUjz94Pexn2oMcy5r9HKf+MUg4JBfaySQkecSX9JU1tqQNGIoYYBttcgxbMvnpe8qzn77ErhaOUy5JLGUDE5g+sqZfvOYc+gqs8Vng/PQbG0j2wzqxnySRJJuYiA8h+xILiUVetwkZcoFD/ygf+zO+1EVbueigDmzO+NJ/yvKafWmberCPvgLleM35+AM4j7EG9nFu5lDqaAUv+7EzjxVjN9uxvwWfp38sbFNv/ECd2JbjbJOs6WvGiT5zjDXtZR8L4Jck7nahf9TR7sOXtMHCNvazpl7W9I81fWSdhf0RW+xs20v/2oXjjFO7jzHgXF7X2m+iXwMGiAFJADMABA1rAjETK4PDZCB4SBaZBCSgBHjKEbicR73sY2E7dbJA2iWwM/mA8gnokEAkUIEAJTkQfOxnSb1pG6ibJMhx+ppElQna9geSNClD2fQl5ZIwaH94bs6DnJc1Ey6JawySAZMJ/5JAk4DpDzbQF+rABsoGfJBkBYwJdVCG9gDf0g/qSIKOnfh/2Cds4lj6T/n4fQzKEw8RonY86QPjgf9pM9BPzgHK8ppy8WliI30A/IOocjwJDBJbLfivjYmMQwSU+vFRBIY6Ug/n4UPKtONGfyjPGHOcu7Ex/zFGtAPUzTnUQ/30P3WFbNPH9CV2s40/W9hHHzmHdZb4CegDdbTHaCfbQDu8TjzTN/ZlXIB6cs65hfrTRvoWIYnYZbtdGA9If7K02/igPdYujBnH6XeVU0CuAQOUQc+AJ+gIpiQbJiNlSEAEbwIYktgow5qJk6s/XlMHwUtbDHQSF6RdjtNuGG4Dk5g6aRsywTLhWZJImbD0GyjPZKdv9IVtEh1Ji2CLPYEJkys3SPJs+0RfsDd9CJkkkPLxIfuxFZuH4GuSI7ZQHp+OkbFq+5s6qQMbsYk6ThF7sBFb87gqMJnpC/albsarTf5jUIb+Q+sX+kM9ORbYJiaA/uCf2MbCa85r60oMxZ/xdfYPYX+ELDakLPZjZ9pjf47hD+omfilDH3KMBR/RJ+KNhXhrwackZcpxjDLYEz/HtpBt6kxfYnd8EZLQKQPxA2WSiAP9ICZZ6AO2ECPxG6+zzTESMH3MPALmcsqcWxhr+sFr2qa+bGMfa+xK+fiZ+mkz7eA71oxZ7OX8xAkL/eV8xggfs82YVnsKyDUgCHE4SwY4E4htAiITMBDQBHYCGDifSc0gBuogENry1N0mhLTLNvvDcBsiSrQDEYBcNXGMYBsSu6gzQZf9tE9Qpk7IhIl9TEqClGU4QVNHyISA2ID9LOxPeQSCSZ3+jiWhMSiXelqwiyUT7KFkzxhgW8YDsBdRpE/0I+fnLiFiM5W0EWE8RXzFOOLf+IolsZF+Af4lMbVJCFpbWigb4uOcw/jwOmNErLKk7xxjm3IcH7ZBfRyLQAxhLDiGXcQqZbEThv5s50Haol9sk0TbGGM86BtlgHKUwdcPEZ9RV/zINuPDuhWJIfQ3xx5a6C/1p2/YkvqxjzW+SPn4uV3wOfvpY+IQ/zJnYgNl0g715py0f1dGAbkGOB2Hs2RggW0GhuPDickgEmwEVWCiULZNXGxTH4NPAkhdmRhAcBH4bLM/jCWsPJKIoCWx00/6S7C2CSMQePQvAZxJnEQxbJvylEvSyp1VJl1LmyCTbGMn55P86BcLdaYMtlHfqYTyENQ5BAHEFxHZsTIttEXSCfgPO5iILPgKsJd+Jh4uAT/gd5ZTxKeJA4i/0mbGF7AN2iQE8flDRIhyDvbzGl9kfFgSF9nmGDEybCNxQd/HfEMfGd+cxzbjA8OYi63spz3OyTzhdeyH9Iv9l4D9nEdd6VO2U2eWIfSDscpxYqQtH/GJaMYfrV/ZlzXtU1/Go104xoJfh3GMT1KGtugX0B/qY0w5766MAnINGAgCiIHM4ACBT1Li+JBM3vZqnMk0vOpNYFK+DdpMLMi+UxNqCH1KEuc8zqcc5c8RAUpCy/nDtoGE3t6VUI5lCGJD8EKucGNTbGASZSKlTQKddgl2yDlLoC9AH/J6KvSTGGAM6Wd7PvbRv3NXuEOwj3OHvm2JcJCAGB+Iv+K/dnzpG7CP19me4j+SN+1QFmIrcdwmOupBjIkB2qX/2JK2WijD/rELF/bRHsuwbxl/5gLEVvYlCbbtctEBmXss9PES4jPawgesk3RbceD1EPrBnOU48YW/iJcICX1hzf6W+JVytI8vWNM+S2ymTJb22JCMIX1p26I85zJnOX73WgG5BjieQGIQmVAJHrbZzzKEQSQgziUpzmVQCQRe0xYTKduQfQRl+xiA42MBNCQJiok8BQIvkzbJv913Co6fSoRJgkxyklFsig0EOvYlkXA8dxz4J1eyW4CkN3wcQ3/p56WixGTmvFx1j4GP8C3jEPAXS/yXeInvgNfUzQLx+UNgG+Uj2own2/g/iY6FethO/LFmbE+N0dBfLZxHnUPf4Rtsxi6Ircy7zL32jin94jySNesI7lSon3qoO2IQf0IefyIoQ4hf+jUcy/SPOlkPLyKZD+ynz5kb9Jv+c24r3viX45RlbpyKN8aR421fImCx8W5RQK4BA8bgExwMQgKKbQbiVGI+N1mBOhAkBpU2qJvzGPhcUWVfkkagPOedg3qog7bmgI1T2zpFrtyTmOgTNqZe7KJ/sZV1jjFpSKD4fquQbMauSs9BAmjHdAziC9/hk8A2SSw+Isngn/gOqDvJC7I+B3ZgD1AfSROSxFjY30L7nNf2cSqcO3Zxgl20lTpjK3HCkm1iCqFJv4YXWpeQNqk74s7rwHHqHhP8xPAQ+kM9EaThIyf6zH7qRTgYsxCB4BhlEHT8lTG5BOwgRmLj3fK1SnHSkyQzJiyOT2LP1QgBMhfqpH4GlTZ4TUCxZOJkHwHaJhvKc945EjBz+5mrnrFJMxUmI/Wk/+l71pl8tJO7jfauhWNL/NwbrvbmJq1zYDdJBV+FPLqJ/xIv+CsiHRj7dn0OkvlYQmeMqIOF9lpy57KmyBNv1Jl5EFuxu7Wd4yy0TXLl2Kk74XNQH20i2nk9drcxBqI+FqP0hb5GkIbgS/bT3ilyJzjXLmD84jPqeun3/+bLleKkJwQnjidAcHzUnysJ9i9JrAwmAcqauriS4qojSRSyjwBIAoYEwzkyudtzLwH7OX+YNC6B/jO58kghfc+avjHxkyxoj9e0SfLEFyTpWyR3bu2V6SkBiU9buDNIDCyBMaIOFuobknmyFsRMrrwhtp4SELaJEV7PjZX4kfqpm7anJu3M21Pgs3YMw7UEBJ/QPhcZ1KWAXIkE5xqDeIo8gqD+kNdZcwWDeBEEBF0m0BSW9Js7AM5/aHJcSvqe9ZiAIBq0ifCwjc23CBMf+9urW8ZyTEC4c8jjp8D+JKkltAIyBiI3bHsN0l5sHQoIF1jMHbbZT/kxgZtKYjE+6zHfWyLu2HIKjjEPl84B5lPsUkCuRASEQcTxPa6EkwCoPwwnfpIGE4a+pE9TyLPPOdBO2681QARzB0e/mLTsy+PB+wCvNkmKc575HoXEABcQYSggJAYEN/tbriUg9GXY9hqkvdjaPtKLXbxmH3dbiaG50EbmOE8HuGLvDTZgy0Nwh7MG8ZkCciUiIHH83ET8ENQ9FBDaJHkiGJDkkD4wUaY+Plty98Dz4DlvED8EdmBPkgLJidcsgM2xW178XstQQIC44JHP8Dn82gJySiTox9h7J0tJ/8diJXYhHulfj7ug3tBvbLkG8ZkCciUeS0CYFCQE9gNXRSRzyjBRM7F6Q0Ja881RGAoIdiKIbAO2xW55kVMCQhJlaUmctLE1hyToYf29Sf9jK+0TjwhFHv8knvJ6b/TIKadILNwtX6wUJz0hgFsB6ZG0qZN2qD/w2Caf0gKCLGWYLJlYvaGNtQMc23gkk6QQe1oBWfoo4sjkYmIoIIj98NNgiZM2tubw2AKSNe3zOkIRu/csINcksXB3B/JHleKkJwQrE5XHQDieAVgbrqR4TET9gU/f0G6u/h9LQHpAEmA5JSDt3Yi8CD7DP/EfED9sD9+jw688x1/6SDACwlhdk3ycO/E+JiDsi4AMH+HJ8yggV6ZNbPlIZA/uB/VuCTz35o3RtH1LAsKaR3gyzpiA4D+WbIfsY72ECAifGLwmsZH+jwkIc4SLLR7rMj/XerP5yCggV4RgTWJb8mb0OYYCkjseHlUAb5gzWdh3dAHB5lv+5NU58Bm+iv+AK3ViYxgT+HVNAbl2zMXGxPtQQHjNxVZ8IudhHF/6g298qlKc9IQAvUZgPhvU559T80YhV1fA5EmZvQsINvH+Th5PYA92JSmQDJZ8QfPoJFm2AsJrfDi8yCFOkoCXsGUBiQ/2Oh+uDYL70v9668OV4qQnBOhjCUh7O34kAaH/JIDYMBQQeZgxAeFiY+x9jiRY1kt4LAEhJtp4px/YmZ8Y4ZGaj60up9Kb9IbAvYaAMCmGAtLCJFFABMYEBN9xRzcEHx9NQOgHa5lPpTfpDYF7DQGhHSbGQ3A8kycTao8oIMsYExAeC475Dx+vKSC9PkRyCgWkD5XepDeZgL2hHSbGQ+QuhcnD673euud7DEkKbGOXb5xPA5/hu1ZATkGZJOAl8P2Stb9QOgUFpA+V3qQ3Cdze0M7YM+wWymTynBObLZMr6PiWbZPCdCIg+RDCQ6wlINTxGHeIxARLYoU7LWNlOZXepDcJ3N7QzrlJno9qKiC3TQRkSmyuJSB8uusxPhk3FBBsMVaWU+lNejNlkq5BEsJD8BiBRz8KyG3zGALyWCggfaj0Jr2ZMknXIAn1HJlQCsjtcqmA5Mcq90jiPbZGQPL9KJlHpTfpzZRJuga3JCDDBMijEewhOch5hv57COKKeGG9R4gJ3nuJrREQY2UZld6kN1Mm6RrcsoCwmBSmM/TfQyggMkalN+kN33i9xsdlFRCTwlSG/nuIowhIfshUAVmHSm/Sm/J3d3KVdQ6SAT9ZzQ8r7pUkQGzg0z354cjhP+/JOPn5/1sSkFwwKSDrUOlNelP+7s5UAeGPmPjdoylltwqCkV8WDry+9k+F7xn8dQsC0v4TJygg61DpTXpT/u7OVAFh4pAM9iwgQBJIUgAShT+KN51bEZB8Ym8oIMM/zpLLqPQmvSl/d4fHUmM/hjfkqAIil3GrAnL/U+R3r9kv86n0Jr0pf3dn6iRXQARuVUDynSEFZBmV3qQ35e/uKCByCZcICJ8k5H2zPaKA9KHSm/Sm/N0dhIHHWOc4ioDQfwVkPpcICO+vsewRPljBrwAnVvKl03N2y8NUepPelL+vwpQ3kRUQgakC8vEvff9+2auAYF8bK2wrIMup9Ca9KX9vBgSE3zXa628bBQVkGfHfuUSKcOQuZI8oIH2o9Ca9KX9vBgSECUVS2DMKyDJuVUDypVMFZBmV3qQ35e/NcBQByX+byDxuVUDAuFlOpTfpTfl7MxxFQOi/iWA+tyIg+dmWNlb8BNZyKr1Jb8rfm0EBEbgVAQHsNFbWpdKb9Kb8vRmOJCBcWco8FBBZQqU36U35ezPwG0Ak3iMICElQ5pH3kM599PsoArLnX5/eIpXepDfl782Qb+IqILcN/ptyVY5wIDZ8G32vYKexsi6V3qQ35e/NoIAIXCIg+JmfytkrCsj6VHqT3pS/N0MEZM+PJIBvR5sU5nNLApI/z5L1qPQmvSl/b4ajCEgSm8zjlgSE/hsr61LpTXpT/t4MCoiAAiJLqPQmvSl/bwYFREABkSVUepPelL83w5EEhJ/plnnw/x4KiMyl0pv0pvy9GY4iIPz3CVfRMg/GXwGRuVR6k96UvzcDf7BD4thzQgD6r4DM55YEhDtVBWRdKr1Jb8rfm4GfrlBA5JYEhDhRQNal0pv0pvy9GY4kIHv9n+4tcImA8D2KP/7GT2vP/kBA9v4Haluj0pv0pvy9GY4iILyXs3cbHpPf/Yt/nCQg+Jhy/AjnXkFAvFtdl0pv0pvy92Y4ioDIMhj/KT8wqIDIGJXepDfl780QAdlzQpDlIAxT3hdQQGSMSm/Sm/L3ZlBABBQQWUKlN+lN+Xsz8P8PCoh88Zs/uxkB+cRXf6iArEylN+lN+XtTKCDC+PM/H+c4goDwSTIFZF0qvUlvyt+bgoTw5g9+WVtyizD+/CT+OY4iICyyHpXepDfl701BQuBjsHLbnPs7W4iA8FfIe0UBWZ9Kb9Kb8vem4EtVvJkuco4IyJ4vOPg7XgVkXSq9SW/K3yK75AgC8r133n36o1/8qrZkDSq9SW/K3yK75AgCIutT6U16U/4W2SUKiIxR6U16U/4W2SV8+koBkSGV3qQ35W+RXaKAyBiV3qQ35W+RXRIB4Y1okVDpTXpT/hbZJREQP/YtLZXepDflb5FdooDIGJXepDflb5FdooDIGJXepDflb5FdooDIGJXepDflb5Fdwm9gKSAypNKb9Kb8LbJL+PguAvLzd39de0QUkKtR/hbZJREQkZZKb9Kb8rfILlFAZIxKb9Kb8rfILkFAPvyH36wtkWdUepPelL9Fdgl/OrXnP5OSPlR6k96Uv0VEDkOlN+lN+VtE5DBUepPelL9FRA5DpTfpTflbROQwVHqT3pS/RUQOQ6U36U35W0TkMFR6k96Uv0VEDkOlN+nNpz/96XL5/vnJT37y9POf/3xt7Z+vfOUrT7/97W/X1v4x1rbL0WLtIx/5yJuV4qQnr7/+erl8/zABPvnJT9bW/nnjjTeefv3rX6+t/WOsbZcjxlqlOOmJk3q7KCDbxVjbNgrIlbhz9Hs428XFxeVAy3uV4kRERERERERERERERERERERERERERERERERERERkBq88ffX1154+efmlnX3tf0K/X37y9LX3v5W6dRsvGId7u45gz8tPn7z2wTeHX3vy8kbtmWDLK6++b8f2Y61hV3NkwCV937Od24WJsUeHTun3szKvvlLH7yf4q09feWmLdl42Dq+8uvUxm2bPvR2vPXn6MmOyWVG8PNZefvLahmOtZU9zZMglfd+znRvlWZDfXfW9+uoOrmY/YHK/CZIkp2c77oJoe3ZePA73dr222TGbbs82x6Plolh7LiFt37Z7djJHRrmk73u2c6u8/MorG7/yG2d+v7cZNJfZgw13iWrDYzbZnvvj274KnD42jMvgDuS5hLUX9pxYL+n7nu3cGhtORg9yYb+fe1yyRSbYQ2K6f59gD2N2ro91VfhKXeWzvP+IYWtM8vczEbm3ZZfisYM58gCX9H3Pdm6PPSSjMS7o97NHETtPuBxP0O9hzM718f6xz+sfvHG+ZZvO9u2ZeLxvy71t+3rGvos5coJL+r5nO7fJHpLRGBP7vZuAOWMPV03vX6HvYczO9fGFJPvsE1mbvAs5Z8v98eF7IBu+oxqgeMh89pCMxpjQ710FzIP2NI9Hhsurr2zTtouT7pEEZMO2DFA8ZBnnJsdWmTSpd2TXJf3dg20T+shd1S4e+5y15Zlg7O4R1t7mSMvR5stu2atzX+j381d992+UjVyxb/aq8Iw9z7GHMZtkz7N9xxib9i5x42NT7G6ONDzc953nAhERERERERERERERERERERERERERERERERERERGRHZJvjz/yT3Xw7XB/kltE5BGon1Oftrz4Q4GPLSD8ON77vz0lIiJXBAEZXME/+8XSwW8EbfJ3txCxffzelIjI8bgTkOGPyY0KyB0vP3l1W8nax1ciItvilIBsDR9fiYhsjGkCUj9bPrwDqPdUniX2vE/C0jxqat93Gb2DaM9jGXufZezx1fC8u8U7FBGR63FWQE4IQPt/C689eXInMEnw+Y+MV58+oe78e+JzYlO88F7LB+c+JyIjj69ov+3zfX8UEBGR6zHtDqSu9ocJ+n1xeT7hR1yef+T0Yh1DEYD0pz33xcdXz4Tm+XPv9ikgIiLXYw0BeT65p84Tj5zeryN3GyeW9//3nfNOP74ati0iIlfi0QTk/vHVuXbvOPXpqzo/gqOQiIhcmccWkHOJn7oeKtO+F/NC/0REpB+PJiB5hDWa9O/KPuERFucM64EcD1X3WTtERGQ1Hk9A2ruHF9+Ev+/PqcdXY8Iy8Y5GRERWIkl8iYB88Ib3M8brHPmI7uB9jPeXauf046vccTR13fdl7G5FRERWJXcew+UFIXkhyT9L0s+993C/3CXzMUFAXCI0zfJBO4NPYz346asQAWmX5+9iRERERERERERERERERERERGRzvPTS/wcgsG9zGeTGlwAAAABJRU5ErkJggg==;" vertex="1" parent="1">
          <mxGeometry x="-3590" y="653.21" width="875" height="656.26" as="geometry" />
        </mxCell>
        <mxCell id="raBx9LtuRQU_PqCKQz18-62" value="&lt;font style=&quot;font-size: 60px;&quot;&gt;Denoise&lt;/font&gt;" style="text;html=1;align=center;verticalAlign=middle;whiteSpace=wrap;rounded=0;fillColor=#d5e8d4;gradientColor=#97d077;strokeColor=#82b366;strokeWidth=0.2;dashed=1;" vertex="1" parent="1">
          <mxGeometry x="-2750" y="830" width="460" height="100" as="geometry" />
        </mxCell>
        <mxCell id="raBx9LtuRQU_PqCKQz18-81" value="" style="endArrow=classic;html=1;rounded=0;strokeWidth=10;fillColor=#fad7ac;strokeColor=#b46504;" edge="1" parent="1">
          <mxGeometry width="50" height="50" relative="1" as="geometry">
            <mxPoint x="-2760" y="990.0399999999998" as="sourcePoint" />
            <mxPoint x="-2239.98" y="990.0400000000001" as="targetPoint" />
          </mxGeometry>
        </mxCell>
        <mxCell id="raBx9LtuRQU_PqCKQz18-82" value="" style="shape=image;verticalLabelPosition=bottom;labelBackgroundColor=default;verticalAlign=top;aspect=fixed;imageAspect=0;image=data:image/png,iVBORw0KGgoAAAANSUhEUgAAAZAAAAEsCAYAAADtt+XCAAAAAXNSR0IArs4c6QAAAARnQU1BAACxjwv8YQUAAAAJcEhZcwAADsMAAA7DAcdvqGQAACqpSURBVHhe7Z1ByCxZmabvcqA2Upvr5kJTYOHSZS976dKlG6GX4mZaG4YCFzWLAV3YSG+6wYUKLnqj1GzEHqZECpHComlFZUoG7S6k0FGcqaZACynkn//J+723zo0b+WdEZpz8MyKfB4LMiIw4cc53vvO+JyLzj/+BiIiIiIiIiIiIiIiIiIiIiIiIiIiIiIiIiIiIiIiIiIiIiIiIiIiIiIiIiIiIiIiIiIiIiIiIiIiIiIiIiIiIiIiIiIj04EZEZGOUvElvKt4iIpuh5E16U/EWEdkMJW/Sm4q3iMhmKHmT3lS8RUQ2Q8mb9KbiLSKyGUrepDcVbxGRzVDyJr2peIuIbIaSN+lNxVtEZDOUvElvKt4iIpuh5E16U/EWEdkMJW/Sm4q3iMhmKHmT3lS8RUQ2Q8mb9KbiLSKyGUrepDcVbxGRzVDyJr2peIuIbIaSN+lNxVtEZDOUvElvKt4iIpuh5E16U/EWEdkMJW/Sm4q3iMhmKHmT3lS8ReSeeeeP79c7OZWSN+lNxVtE7pmPf+XHN6/89He1JqdQ8ia9qXiLyD3zV//wrzdfe+PXtSanUPImval4i8g9o4EsR8mb9KbiLSL3zEe/+PrNy//8b7Ump1DyJr2peIvIPfMX/+0HGshClLxJbyreInLPaCDLUfImval4i8g9o4EsR8mb9KbiLSL3jAayHCVv0puKt4jcMxrIcpS8SW8q3iJyz2ggy1HyJr2peIvIPYOBvPTtX9SanELJm/Sm4i0i98yHPv/azV//0/+qNTmFkjfpTcVbRO6ZB5/7rgayECVv0puKt4jcMxrIcpS8SW8q3tIJnq767//3vVoT2Y8Gshwlb9Kbird0gkd0f/m1X9WayH40kOUoeZPeVLylEzxh1Z9myhQ0kOUoeZPeVLylExqITEUDWY6SN+lNxVs6oYHIVDSQ5Sh5k95UvKUT/nGYTEUDWY6SN+lNxVs6gYEoCjIFDWQ5St6kNxVv6YQGIlPRQJaj5E16U/GWTmggMhUNZDlK3qQ3FW/phAYiU8FAPvHVn9SanELJm/Sm4i2d0EBkCu/88f2dgfCrPTmdkjfpTcVbOqGBnManv/nzmzd/+4da2y487kYDWY6SN+lNxVs68eGXv6+BnAAG/LU3fl1r20UDWZaSN+lNxVs6gSh88hs/qzWZiwYix1DyJr2peEsnFIXT0EDkGErepDcVb+mEonAa3AK8hqcZayDLUvImval4SycUhdMgftfwLDENZFlK3qQ3FW/phKJwGhqIHEPJm/Sm4i2dUBROQwORYyh5k95UvKUTisJpaCByDCVv0puKt3RCUTgNDUSOoeRNelPxlk4oCqehgcgxlLxJbyre0glF4TSIH48z2ToayLKUvElvKt7SCUXheH7z7p928buGR8F87xf/z1xZkJI36U3FWzoQAfzLv/+X2iJzyKxcA5G5lLxJbyre0oEIII/jkPlcm4F86POv3Xzs796oLXIKJW/Sm4q3dEADOY1rMxDyxFxZhpI36U3FWzqggZyGBiLHUvImval4Swc0kNPQQORYSt6kNxVv6YAGchqJ38e/8uPasl00kGUpeZPeVLylAxrIaSR+1/DLJA1kWUrepDcVb+mABnIaGogcS8mb9KbiLR3QQE5DA5FjKXmT3lS8pQMayGloIHIsJW/Sm4q3dEADOQ1EVQORYyh5k95UvKUDGshpaCByLCVv0puKt3RAAzmNazKQ77z5+5uPfvF1c2UhSt6kNxVv6YAGchoYyIdf/v5OWLfO19749c4ozZVlKHmT3lS8z8YnvvqTm3f++H6tbZsfvf3uThB4SJ7M55pu62ggy1LyJr2peJ8NZuTMzK8BBBBRoM0yHw1EjqXkTXpT8T4LuaXz+lv/UVu2jQZyGhqIHEvJm/Sm4n0WYiAIwzWggZyGBiLHUvImval4nwUNROaggcixlLxJbyreZ0EDkTloIHIsJW/Sm4r3WXjzt3/YiSm/eb8GNJDTuDYD+eQ3fnbzn/7L92qLnELJm/Sm4n0WEATElMFyDWggp3FtBsI/zjJXlqHkTXpT8T4LGojMQQORYyl5k95UvM+CBiJzuKbHe2ggy1LyJr2peJ8FDUTmQJ4QPw1E5lLyJr2peJ8FDUTmQJ5cyxfLGsiylLxJbyreZ0EDkTlck6hqIMtS8ia9qXifhRjIF159q7ZsGw3kNDQQOZaSN+lNxfss8KUoA+Tlf/632rJtNJDT0EDkWErepDcV77PAILlGA+Ee/nvv/7m2ylQ0EDmWkjfpTcX7LFyrgfAromt5hP2SaCByLCVv0puK91m4NgOJKGggx6GByLGUvElvKt5nQQOROWggciwlb9KbivdZ0EBkDtckqvwy8aVv/0IDWYiSN+lNxfssaCAyh2syEMYEiwayDCVv0puK91mIgfzNf//ftWXbaCCnoYHIsZS8SW8q3mchBoIoXAMayGloIHIsJW/Sm4r3WdBAZA4aiBxLyZv0puJ9FjQQmUPi9+GXv3/zm3f/VFu3iQayLCVv0puK91nglyaIgQYiU/jya7/afV92DfGLgfjUgmUoeZPeVLzPAgMEMdBAZAoR1WsyEHNlGUrepDcV77OggcgcNBA5lpI36U3F+yxoIDIHDUSOpeRNelPxPgsaiMxBA5FjKXmT3lS8zwID5GN/98bNJ776k9qybTSQ09BA5FhK3qQ3Fe+zwADh8eYs14AGchoaiBxLyZv0puJ9Fq7VQGgv/xtE5qGByLGUvElvKt5nQQOROWggciwlb9KbivdZ0EBkDhqIHEvJm/Sm4n0W9hkI4rrFQRNR0ECO45pE9Zraeg5K3qQ3Fe+zEDEdGsjHv/Lj3WdbI6KggRxH4jdVVLnae+eP79faupjbVrmbkjfpTcX7LPBcI37COzQQftrL4N8aEQUN5DjmxA/j4EGEa41z2qqBLEPJm/Sm4n0WMIl8J9DCoNFAZMic+CG6GAjfO62RtFUDWYaSN+lNxfssYBL83+ePfvH12vIYnkC6xT8unCOA8ixz4vfmb/+wM5B//MHbtWVdpK0ayDKUvElvKt5nAQPJIGlh4A+vSrZAROGT3/jZzT/96/+prTKVxG+KgfA5ecT+a4Tbuzy+XgNZhpI36U3F+yyMGUjuXY8ZCFcra565RwBp91pvrdwnid8cAyFn1khyRANZhpI36U3F+yyMGUjuXY8ZCPt9+ps/r7X1oYGcRmblcwyEWK8RDWRZSt6kNxXvs3CXgQy/F4EPff61UWNZCxrIaSRuUwyEW4RbMxD/M+HxlLxJbyreZ+EuA2m3hX3GshY0kOP40dvv7l7nGAj78e+S+ZuiNTI0EAxxrW25BErepDcV77MwZiAIA+tDA2H2xa+zuApZKxrIfDKh4LuxuQZCDq31ijVt/cu//5eb19/6j2fGicyj5E16U/E+C3MMBCFhG2KyVjSQ+SCe9Dn9P9dA+INUljUybCvf/a059++bkjfpDYl6rnutDBK+FG2vKvYZCELCbIztiMka0UDmQz4cayDsN8yjtTBsK+sayPGUvElvpgzOpcggaQcG58YouF3Vwnbqxowy98TXhgYyn3wZzgRijoF84dW3dvvzPcgaGbaVdeKw1md73Tclb9Ib/gL8lZ/+rsLelwyS1kAQDP7QbjjbioGc0+CWZmggEQbZT/IjsWJ9yh9iJtbDPFoLaWvynVfastar7/um5E16k8Q9BxGCdpBzbuqwz0DW/FfcQwPh/VpvsZwL4jQ0kGGOfufN3z9z2zWx5vboGmftaaMGsgwlb9Ib/nKXy/9zkMExxUByZcJ3NGt/vlHEgViv+Vdl54C+PmQg3KYaTioS697fmfW6nbrPQHjGl8yn5E16k4HXEwYHM8Y5BpLt56hfL1L3iMNYO+VpiNchA+FzfozRkljnZ7A9yGN3epSfNg4NhPcyn5I36Q0zvp6PC2E2yEBg5jZmIDl/uw0iHL3r15NcPbVCSDv9C+P9xED4Xq6NWwzkN+/+afc5+7XEQHre8iSHOXfqsiRpY8YIV1IsGshxlLxJbzJAe5Hf9WdWxSu/uIqIZuBzWwJxCKlXbmWtkaEA8kosvK+9H3IhIj2MH2RCwnOyWvLcrORTDzL56XHLN23saSBr/TXjMZS8SW+Y6fX8XxwZdBhBOzgiohnw7TaIcJD05/jjMG5PLH1lMBRAHk2hgdzNIQPJ//1gW0v26TnhoGzO3eOJv6l/O0Z4jA8/GFiCXD21k7QtU/ImvSFZSdpeYFARhDkGwmySWSXCPvzimauapU2P8pYWhohC2kj7iUWve/RbILcziVvil1fIhIRtLdnnmAkHEwf6/9AEgvLHzr0EqX87Rnifdp8KRkTdr+UqpORNesOMrucDCzPoMATOw/mmGEi2w/CnmQg9ZY7N5NmPATgX6rb0w+siCmlLDOSY+l0LxIwYEbfEL68QAxn2VfbBBIZ/lHqIlHnI2OlDzOnUyQu3wIbf06T+vQyEcraee5hj8qLkTXrDJW3717vHCvA+krgMvphEaxb5ovkuA2HAtn/sGJEZ+wNIjjnmr5ExqaWNNKKQtiA+nGfLg/hU0rfELfHLKzCTxiAQ1/aKAeHI7R76kQnLXbey2pl4cjTHj+UV0Iecl+UUqN/QhNLGGAj1adt9KsSDMofGdRfEt524zYVjD13VLQmxyuSh5E16Q7ARNZIVmB0t+TgIBh2Jy2tMIoMEMkjuMpB8f5LfxPMewRi75cTA5HxzEh8TJQYsh6DcqbcB0ra0hTZS96VEYYsQM/qPGCV+eQVeE0f6OoLY5hTb6cuIyVDEWOdzJi4QcaXs/OhjrI+pBzl3ykSDc1Mvfm7ckjamHdShbfepkH9p41Qw4GE9D0F/pE84/py/oES7aCM8+Ox3/2tJnPSEYDPzimnkHvRSX7YlcSOg+wyEQdn+0VREN7APxzMAmckzS2R9SJ6rlbIQh33fbaQO1ImyOO7QjInvZaYabNqWtkT4lhIF6pJZcw8oOzGfwym5E/EnRsmTNhfYTv9nyfY2p9hGzlFO+raNE7nB5/klV/bHUCif92MzdfqTfcfybirUh/KHZYwZCHm71C++aCv5HdOcAvsPx+UhGH/0C9DGuQZ0CunHxLgkTnpSsd8FHDKD33c/mGSaIyjp1Ay8fQbSbgP2Z2khGalXykHIh2LFZywpi2QemzFmkFIOZVJ2ym0ZXsm0BsUslbrvo6eBYKBchVGfqVdEMNa+fbdsqD8xSvm8sm1YRgtlIdyHTIQcGhMz4sNCvJITbS4gqMxs08/Z3uZP2kRsiDVtoN4hfU+uA5+lrMxix4Q7/cnnc0kece7kUEtuwaUdnKNt9xjEeGyGTx2pK+ckzuzXtnEK9DVjhwnYnKsIxiRt49y0gXMC5SWP0k9ToJy78q0l341yngefe/WdkjjpScV+19F0FAlMEozNwIDP9s3oW2IyJC5lJoE5R3u/OoOyFQAYGzwIB/UiQSm/LSeQQCmTfdh3bMBHKDie83J+Fo5j0ACfDcWQdfZDoHhlfR+pR9rCvswEpw5ioC5jAyhlE4+77vW3MBipQ9t/iEMG/JCYb3IB4aPubNs3qGkf50gM90E5xH8oJukHPueVz3mfmPGaXOI8Ebfs24JB8Dn1jZABcWMb7YGUl/Okn4Yk35J/Y1AHzjv8nPO1/TXMydQ/r3zetnsMYjyMYcogv6kHfU07ed9esR2CuhIXoN379GAI9SGWxIk2p52UQb1yi5DyiRH7jE1WYzbUnXofmpAA9U3Ztwby7yVx0pOK/a6TMuugs8dmYIgGgycDDzhmbDCRLElC3meQUgbv+Sz7tQMntPuEXNInKRnkrVCRZBhctqc9Y1cqCEuSjWSnzQxs9mU7gko5rCcWMaTUA6Fh2ZfcaUOEgHIPiUILseIYyuHc1CdCn/6KKdwFdWVfTI/jWjFNfIhBC+eLQBPLtB1a0xoaCf3IMYdMjTqwT5tntIXjWYhRcqKNGbGnfI5PbGCYP8Bn5Cr78xqhoj0IauLAsawTX45JLgDtTvxzjuTxGBk/w7ykrpTJ9uRVmzcpm32I75RcSTnthCB5AdSTPsyYTRupe/KIdo3lL23O+KNe1O8QlMs5OQ8xJw4xW7bznu2YBuVTT9rZ1h+4MmVfcpJ6U+c2nmFYd8qkPOqtgZyJiv1TgyODNJBsdBQdQ1KQtEACJGFa6NgMbhbK5pV9STLeJzlz3ryGdp9AYnF+ygHEp00+6sMAynaOp5x2UAXKITkZoNmP46g35SM27EM5GTzctspMMnFohWlI2hAhoOxhnfdB/BETFkSAtvOaYzMwgTrtu09N3VJPjuX8lJM+5bOxAZpYpu5ZB85LGWxP2bwH1ulH6jQG5+V8tIs2Jc+oJ2UmnygvOZE6QGJKLJNjMMwf4JjEHPNMnqY8PgPqTz0oi4U4pf6IGPu1Ocr+iHwbs8y4aVcbK6BtEfH0QcZCSNmcn7rxeeq5jxhC8jN1DNQxgk1s2ZfyOS5xoz5tXYG84PzJL/qM4/cRIU+7OQ/n5NxpJ+3nM8ohbrynfqwP9SM5z7HEKuWSL6kTcB6257Y65XAcx2ggZ6L64kkC02kRaqBjSHw6io6l8yNeJEj2zQyWZGPAMOgokyUDM8nEe0QAct68hnafgAiQmBncfJ6BQLkMNpKI7dSVepN8lM2xJFwSMMLJAEo51J39cm7qS3Kybz6jfMqkfbznPAyEMVJOhIBj2joPyTmIA3WnbNpFPWhzBl6MLIzVgTrSNvomcaMcyk5/sfCecolFS8Q99U3bA4OUY4kn/c37CALwSntCBjntIha8b8vkPMSHhfOxT3Ii8YPEtN0XhvkDtIF9EpvUKXlLv0YsKZ+yhu0gNpTBOYk9cSXeHMv2tJEyiGfyK/sC5VEuZaav2s8h9U/bKe+uXAHKIPbElHPTh9R3COemrnxGeRzH0n5GHEJMriWxYonxUX/aT33JL+pPOxL35CvbaXuMkzJY5zji0eYycExyI/ElFuzLEiiLclioM+dmG3G4Pf+PSuKkJ9UXu8TKwGwFKh352NU/+IxXOpokaoWAV5KNjuRzOpWyWdhG8rWJnoGT15D6tPA5dSDps85xwCufUXYMLMlGWRkofEZSknQZoNSlFVASmyVGSZtoIzEgUYG2cPxw0LJ/1iMWKY/z55z5nDgGzkNsiRuDMCB4xJSyqRNlJt7Q1gvYj/pxzggB5VEun6XOOa7tv5D45zOOpx77YF/qnv5IzID6Uh/qnokGRPwg8WHh3KwnJxI/SL2yb+qdnGxJHmQ7OcD50y/JX+pFXfk852wnScSeWCV/eU+5HM9xlMH7ljamyS+OZ6FeOU/IetrOfskVtlPfIRF18pnjsz6Ec5PvqRNlsw68TztC4tJCbNiHz1hoA+cjlhlb5AjrHMs69aZetIPzQOrHsXxGu9i3hbrFOIakbtEhzknZ6TveE7PbMr9XEic9qX7ZBZ2BQcdCOrUVyCR8BmIGGQudnlc6OR2LQFAGicV6rhQiCEmIVnAgQtHCsdQrQtYOXM5L/Uk86sH2CEcGEPWlXhlIeW3rA+zD9sQin7exSIJHHEIGD3WNKOR4tuecaUvKY534UG62BdqTtlAm8W8Ng75In1B21vfBoKU/EoMMxpb0VUQgbdhHYh6hi/hB+nhI2gz0KfFgoW2caxg/yDaOY1/WIfUdkpyF9F/KoP3Uk9xIO1PXGBLr7Mf5cw76iBxJvYY5EFJWzks5GTPpr5A6EbOcKzFkSTsDZVBWoE5tW1s4D/2dNhI32swxlMH5kk+Uy2e8trAPMaGfaBP7UBavjBMWPsvYTF1oM2VnohBoP/WgLI6NsVAnytwH+cp5WZJrlEGssxCv27I1kHOw64Fb6Hg6OgM6g4WOZ7bRwr4MilZ0SBQEPNuS4BkIdHjKZL8kbLbR6a1hDNcDZXI8cBzHH0o6Bi/JGjOjLiR4BlSEIDDgKC9JH0GmjSRwSwwBSGTec66UzWvKH25nPcKzT4SG0HaOa8Un7Sf2lM0rArePxK0duBxPOSwZkJB99/XHPmJKlB8jHtKKIOVzHtqWeCVObb5kW/ZlHVinrneRGEfYOQf9xXr6JeWwnf2pe4S8jRek7xHnsSuEtCOfpy0wjGfaxXaOoR45L7nHeqAstrfjbwqUT04Tc45lPW2ifGLT9n0L/ck+aT9tJ1coh9yhjpRN3VuoJ+3n8xbikDZFY9iH4zPu9sE+bf4nR1k4H7G8zQ0N5BxUH+w6heCnU5PQw0EDdD6JE+EEkp19220kagZgOzgzMCDbWG8H1HA9UM9WKBCRfUkfSHb2o7wkO5C0JCuG2Aou7WV/Eh8idLQ5VwKhPTdt5zgWYpcYtrHNdupEmTnHPhEaQl3GzIHjWRjUCMFwBjmknS0Cdad+tDH1g5gTMWsH7RQ4jpi3OTGEGFBXzkn9yRfixZL4tfmSbcScY1mH5NFdRPCzLwt1JF4xvHzG+Smfc6XP6NeWHEMZxGlIjotAtgxzLu2inZybepAPxITPiEtI2xOTqVBfjqNsykyMgTbTx8RnTrkYO/uzUPYwN2PYY2VGVzgnZs3xxJhj5pDxSbs4D+d78NnvvlISJz2pPniSTEkoEpdkYHAMYTDQ0XR6oBMZTAyCQIeyH8JDuRmAmdFDBiwd3xoG558iqNSP/VLePqgXg5zzRQg5b5JuaFZsbwcDIjAWiyQv0H7MlbYiVrxyXuIU4YrocD7WE2+2Dc3pnBAL6sygjnkE+o1BiVnOgbjSxsy6x+Bzzk359CP75koh8WsNJHHiszZ+KecuYvbJQ+AY+jC5kM/YljyhDpynPS6QE/tmzDFf8oPyWhhvLCFtpZ2IcsZS2tnWi/L4bMy07oI2pi8ZX+Qkr4HPMaq5/Qy0hbKHucN2YnCXKfAZbeSVWB5zfs5NXHIX5dZAvlYSJz2p+O8GLp2XAUlHIMpZH8IgHw6KIRmswwEYEYUM/KGIZ0AdguOpazubngpiyYAZMyvq1EJS75uBR1wjFGlL2pD3aSuvDKwIbEThUqGO9N1cwSKmHHeXIGR2nthADKONH+uQ/TB3Ysg+7fa7SJzZd0j6JTnaQr7y2VgfUbe72kdusAxh/NCmHJu2sq1te/Im8Wf/sfKmwPGUQ5mMF8bg3Nn+PtLXw0kQ/cT21iyHZB9ieSyJETrGmNZAzkTFf9d5dEIGJJ3KgDlGmAMGRJkZCHRwiNhmG4OmTaAMoEOwH8tdCXoXnH/qufaBgTEQc5uB9VyJUC7t4j2xaA2E/YhDbqVdKtRt7OprCoeuqpgFM2ttc4N4tSKadUgMIXkF7fa7YP99V6vUob1VFCiXzzjHXBD8MYOhTZSZiVTaOmYgxJ6FejAuTxmTlEP55B/nv+vqcA5MxsjnIenbdmwP4VhMMbe0joE4MpYSVw3kTFT8nwQ+A3XsNtVcSCjEJwOB8kIGfLZx3jbJMoAOgQAxKO5K0LtAMHK74Fg4ljrEBBicLGkDdeN9BChxZjvnZ99TRKE31O3QLcJjoWxEjPgF4tKKaNYhEw8gfxLTqQaCmO/bj36JoLdkonOMgewj44v2QNpKO9u285p6YcYx3GOhHMYlMaXc4ZX30hBvzrPv6n0pcos47Xrwt69+oSROelLxf3IJmoHKoGFwnzIrYKCSQLllRfkhAyTbMmsP+fwQzPwpY8q+Y6ReU8RnH8QKAcztgDkGgumwnGLUvaF9c29fTYU+x5za2zIxjDZ+ycs2h44xkLvAzDnnGJw3E4QlIKbJXUhbaWfanvaxTz4/tZ3kJeUwJin30BXiqdBOzslrT9AqcuiJgfg49/NQ8d8lFYHvMRNuB0IY3rqI6IYMmEMkYY4VOM7D8aeKD3VNHdKWtIE68j5i1171IBa5jXWNkAOYL/kQhgbC5IbvqRChzNgheQWUcarJUVb7pXLLXeZyCpTLJC1tHRoIuUm9MFni0F6pncqpOX9JkEdMRrjSIWYayJmo+O+Sl8C3Ir4UYwbCIOFcEYCIbsiAmsLU/cZAuNp6LcHYr4gwjMxgeY1pcIWWK5drBFNARIlRGBoISwQ1+QLt+hJ9yDn29QXn2Wcup0C5tCNt3WcgbKNux36Bfi0QQ2L24LOv/k1JnPSk4v7kkvZcBsItK652IgCclwGSK6AMqN5wviVndTAUQNZpJ+vAK7EgLvLB3wOExC/iGgPBbFsBTV5Bm1vHwgyfc4zB+XtcnaeNyZXWQPKrKdrMubkKaa/U5FmeGMjnXv3rkjjpScV9l8QEvp0JLkUGejvIMYyIRNYjrJAB1Rt+1bLkvW04ZCB8Rjt7fa+wdvYZCLcn2i/zlzaQu6AOnG9pkiN5xSh4n6sd2sU644Or1rFfOskHZCKsgZyJivvuVgKBP+UXHvsYMxBu8zAwMqNkgPCefZiRcsun9xd84ZQfCowRAUwbhgbClVZ7L1+eZp+BtFeocE4D6QXtag2EcUCbaD/Qrnz/wXsmPLIfcoI4Pfjb//lXJXHSk4r7Dgbn0mIKYwYyFFXWdx1/u2R/XtfIUACHbUUM8l6eZRg/bivxPQlLe9WWPIE2t9ZEjCNtHRoIbWZc5me/1/pji6lkIvzgP/+Pj5XESU8q7l3Jr2cYDCG/vrlGAwFiIuPkVlXix0JejN3/Z3v7ujYOGQjv2Ua+8CqHYcJR8ia9qZh3hwHOYAgMGrblXm9rINz2yYBaI5gjYpc2cMWBeXrVMY3c0kn8YiBjAsr29nVtYBSZYIwZSK4+ZB4lb9Kbind3GOAMjLCbJdxuy0BpDaSdka2RoQDGLNsvgGU/w/jl10hj9//Z3r6ujUMGIsdR8ia9qXh3hwHOwAgMFrbld/f5kpBlqwaiKExjGD8gfmOPw2B7+7o2NJA+lLxJbyre3WGAMzBCvuzKbYmILIsGct2MGQgTjLHvjYgrP/xov19bE2MGwneDmVjJcZS8SW8q3t1hoLcGAgx6Bg9oIBLGDGQfxJV9hrm1FviOg1tzaSsGQpsysZLjKHmT3lS8u8OgGA7y9q9+I7L8WotbFVPE41LRQE7jmgwEo2BJWzWQZSh5k95UvLvDALlrkDN4YjJclSzxcLz7QgM5DQ1EAzmVkjfpTcW7OwyQuwY597EZOPw1OgbC+7XCzy55PEpEQQOZhwaigZxKyZv0puLdHQbIoWdO8fcT+VJxzQYSQYsoaCDzmGMgXKlyK5R914gG0oeSN+lNxbs7DBBE4RBbNhBFYRpzDIR92J/XNTI0EL5QN1dOp+RNelPx7g4D5FoNJM8xUhSmkVuA/Erv0LPZiPGaDQTD4JdYyZXk/lL/q/xaKXmT3lS8u8OTaa/VQFg0kOkkflNygP3WbCDkOjmfXEnu8yrHU/Imval4dwfzmGIg+d/oWzCQ/JJMA5mHBqKBnErJm/Sm4t2dqQaCyLJswUDSBg1kHnMNhB9ftP+pcE1oIH0oeZPeVLy7g3lM+XecGojMNRDEdsrk5BKJgeRqVQNZhpI36U3FuzsMcAbKIbZgIAgBgjA0EEVhGtdoIGmrBrIMJW/Sm4p3d/i/H1MNJJf0awYRiChoIPO4JgPJ/45JWzWQZSh5k95UvLuDKVyrgeT/WSgK07gmA8nfvKStMRC2y/GUvElvKt7dwRimCOgWDQR4r4FMY46B8OX5l1/71WYMhHXeayCnUfImval4XwyIQf4d7JpBBFoB5D23K+QwcwwE8WXSoYFIS8mb9KbifTHkdsQWDURRmIYGYq6cSsmb9KbifTFs1UBoT/v/T2Q/+Q+D12ggmCfveZyLHE/Jm/Sm4n0xbNVADj3TSZ5mGL99bNVAeJXjKXmT3lS8L4atGEj7dyAynzkGwv8Pn/JHqpfIm7/9w+45cRrIspS8SW8q3hfDVgyE+vPveeU4EFFuYx2CXJn6E/FLBKMgV2Ig773/513erPW/cV4KJW/Sm4r3xYCBMKAQhjVDG9ZugvcJgjolflszEPB25+mUvElvKt4XgwYicC0GMucHAzKdkjfpTcX7YsjPGDWQ6+ZaDARoq7c7l6XkTXpT8b4YNBCBqQby8a/8ePJz1i6VqW2V6ZS8SW8q3heDBiIwVVQxjlyFrBUNZHlK3qQ3Fe+LQQMR0EDkFErepDcV74thKwZC/RWF4+E7AQ1EjqXkTXpT8b4YNBABYqeByLGUvElvKt4XQwxkzYIAGshpzDEQ9uNxJmuFn/GaK8tS8ia9qXhfDDzaYSsGsvarqPvkmgxkaltlOiVv0puK98WQZwFpINcNgjolfp/+5s93M3gNRFpK3qQ3Fe+LQQMRmGogGAf5ooFIS8mb9KbifTFsxUCovwZyPNdmIPxrXlmOkjfpTcX7YuAppBqIXJuBmCvLUvImval4XxQIwkvf/kWtrRMMZK3/o+IS4H9k8IiSQ2zBQDAPDWRZSt6kNxXvi2LtggB8ubv2q6j7BEGdEj8NRMYoeZPeVLwvii0YCPXHROQ45hrIl1/7VW1ZHxrI8pS8SW8q3hfF2n+WCXyX43+VO56pBvKPP3h7ZyD8H5m1ooEsT8mb9KbifVHwpeIXXn2r1uQamWogGMfaDYTvyvy+bFlK3qQ3Fe+LAgNZsyDI6fB/PqbcAtyCgWCUU8xSplPyJr2peF8UzD5f+envak2uEQR1ym1MDUTGKHmT3lS8Lwq/OxDMY4opbMFAuF3rLdtlKXmT3lS8RVbJFgxElqfkTXpT8RZZJTEQb3lKS8mb9KbiLbJKvvPm73cGwv+REQklb9KbirfIKsk/INNApKXkTXpT8RZZJRqIjFHyJr2peIusEg1Exih5k95UvEVWSQzkR2+/W1tENJCzUfEWWSX5B2S8ioSSN+lNxVtklWggMkbJm/Sm4i2ySnhqAc9Oe+/9P9cWEQ3kbFS8RUQ2Q8mb9KbiLSKyGUrepDcVbxGRzVDyJr2peIuIbIaSN+lNxVtEZDOUvElvKt4iIpuh5E16U/EWEdkMJW/Sm4q3iMhmKHmT3lS8RUQ2Q8mb9KbiLSKyGUrepDcVbxGRzVDyJr2peIuIbIaSN+lNxVtEZDOUvElvKt4iIpuh5E1685nPfKZCvn5++ctf3nzpS1+qtfXz9a9//eaHP/xhra0fc+1y2VqufeQjH3mlJE568uKLL1bI1w8D4FOf+lStrZ+XXnrp5lvf+latrR9z7XLZYq6VxElPHNSXiwZyuZhrl40GciZuA/0ewXZxcXHZ0PJeSZyIiIiIiIiIiIiIiIiIiIiIiIiIiIiIiIiIiIiIHMHzN49efOHm4XMPVvZn/xPq/dzDmxee/FXqpbdxRj/s2rWF9jx38/CFD/5y+IWHz11oeya05flHT9px+bnWsKoxMmBO3dfczsuFgbHGgE6p9+N9Hj1fn+8G+KOb5x9cYjvn9cPzjy69z6a1Z9eOFx7ePEefXKwpzs+15x6+cMG51rKmMTJkTt3X3M4L5XGS3876Hj1awWz2AybXmySJOD3ecJtEl9fO2f2wa9cLF9tn09tzmf3RMivXnhKky2/bjpWMkVHm1H3N7bxUnnv++Quf+Y1zfL0vM2nmtYc23ArVBffZ5PbsPr/sWeD0vqFfBlcgTwnWWlizsM6p+5rbeWlcsBjdycx6P3W75BKZ0B6Eafc9wRr67FAda1b4fM3yWZ7cYrg0JsX7sYns2rJK81jBGLmDOXVfczsvjzWI0Rgz6v34VsTKBZfPk/Rr6LNDddzd9nnxgy/OL7lNB+v22DyetGXXtnXdY1/FGNnDnLqvuZ2XyRrEaIyJ9V5NwhxoD7OmJzP0NfTZoTo+I7KPf5F1kVchh9qy+3z4HcgFX1EN0DzkeNYgRmNMqPeqEubO9jS3R4bLo+cvs22zRXdLBnLBbRmgechpHBocl8qkQb2ids2p7xraNqGOXFWt4rbPwbY8NozV3cJa2xhp2dp4WS1rDe4z9X561rf7omxkxn6xs8ID7XmKNfTZpPY83raNvmmvEi+8b4rVjZGGu+u+ci0QEREREREREREREREREREREREREREREREREREREVkh+evxe35UB38d7iO5RUTugXqc+rTl2QcF3reB8HC8J8+eEhGRM4KBDGbwj59YOnhG0EU+dwsTW8fzpkREtsetgQwfJjdqILc89/DRZYm1t69ERC6LfQZyaXj7SkTkwphmIPXY8uEVQH2n8ljY8z0JS3Orqf3eZfQKoj2OZex7lrHbV8PjbhevUEREzsdBA9ljAO3/W3jh4cNbg4nA539kPLp5SNn574lPmU3xzHctHxz7lImM3L7i/G2dd/XRQEREzse0K5Ca7Q8F+om5PC34MZenbzk9W8bQBCD1aY999vbVY6N5+tjbbRqIiMj5WMJAnhb3lLnnltOTMnK1sWd58n/fOW7/7avhuUVE5Ezcm4Hsbl8dOu8t+359VcfHcDQSEZEzc98Gckj4KeuufdrvYp6pn4iI9OPeDCS3sEZF/3bfh9zC4phhOZDPQ5V9sB0iIrIY92cg7dXDs1/C7+qz7/bVmLFMvKIREZGFiIifYiAffOH9mPEyR36iO/ge48lS59l/+ypXHE1Zu7qMXa2IiMii5MpjuDxjJM+I/GORfuq7h91yK+ZjhoC5xGia5YPzDH6Ndeevr0IMpF2evooRERERERERERERERERERERkYvjwYP/D1ehNwKCbn4jAAAAAElFTkSuQmCC;" vertex="1" parent="1">
          <mxGeometry x="-2350" y="655.84" width="875" height="656.25" as="geometry" />
        </mxCell>
        <mxCell id="raBx9LtuRQU_PqCKQz18-214" value="" style="group;aspect=fixed;strokeWidth=10;" vertex="1" connectable="0" parent="1">
          <mxGeometry x="-932" y="1460" width="870" height="670.35" as="geometry" />
        </mxCell>
        <mxCell id="raBx9LtuRQU_PqCKQz18-198" value="" style="rounded=0;whiteSpace=wrap;html=1;fillColor=none;dashed=1;fontColor=#ffffff;strokeColor=#B20000;strokeWidth=10;" vertex="1" parent="raBx9LtuRQU_PqCKQz18-214">
          <mxGeometry width="870" height="602.7243301564465" as="geometry" />
        </mxCell>
        <mxCell id="raBx9LtuRQU_PqCKQz18-199" value="" style="group;strokeWidth=4;" vertex="1" connectable="0" parent="raBx9LtuRQU_PqCKQz18-214">
          <mxGeometry y="67.62566984355347" width="870" height="602.7243301564465" as="geometry" />
        </mxCell>
        <mxCell id="raBx9LtuRQU_PqCKQz18-200" value="" style="html=1;whiteSpace=wrap;shape=isoCube2;backgroundOutline=1;isoAngle=15;rotation=-135;fillColor=#f5f5f5;gradientColor=none;strokeColor=#666666;gradientDirection=south;opacity=50;sketch=1;curveFitting=1;jiggle=2;fillStyle=auto;shadow=1;" vertex="1" parent="raBx9LtuRQU_PqCKQz18-199">
          <mxGeometry x="118.80175817247955" y="35.67940433565877" width="183.00185257418283" height="308.88313520601463" as="geometry" />
        </mxCell>
        <mxCell id="raBx9LtuRQU_PqCKQz18-201" value="" style="html=1;whiteSpace=wrap;shape=isoCube2;backgroundOutline=1;isoAngle=15;rotation=-135;fillColor=#dae8fc;gradientColor=#7ea6e0;strokeColor=#6c8ebf;opacity=50;shadow=1;sketch=1;curveFitting=1;jiggle=2;" vertex="1" parent="raBx9LtuRQU_PqCKQz18-199">
          <mxGeometry x="211.96633766479067" y="62.11058596470872" width="183.00185257418283" height="308.88313520601463" as="geometry" />
        </mxCell>
        <mxCell id="raBx9LtuRQU_PqCKQz18-202" value="" style="html=1;whiteSpace=wrap;shape=isoCube2;backgroundOutline=1;isoAngle=15;rotation=-135;fillColor=#d5e8d4;gradientColor=#97d077;strokeColor=#82b366;opacity=50;shadow=1;sketch=1;curveFitting=1;jiggle=2;" vertex="1" parent="raBx9LtuRQU_PqCKQz18-199">
          <mxGeometry x="293.48534472056315" y="85.75953794859585" width="183.00185257418283" height="308.88313520601463" as="geometry" />
        </mxCell>
        <mxCell id="raBx9LtuRQU_PqCKQz18-203" value="" style="html=1;whiteSpace=wrap;shape=isoCube2;backgroundOutline=1;isoAngle=15;rotation=-135;fillColor=#ffcd28;gradientColor=#ffa500;strokeColor=#d79b00;sketch=1;curveFitting=1;jiggle=2;shadow=1;opacity=50;" vertex="1" parent="raBx9LtuRQU_PqCKQz18-199">
          <mxGeometry x="389.9772306233139" y="113.58183440022724" width="183.00185257418283" height="308.88313520601463" as="geometry" />
        </mxCell>
        <mxCell id="raBx9LtuRQU_PqCKQz18-204" value="" style="html=1;whiteSpace=wrap;shape=isoCube2;backgroundOutline=1;isoAngle=15;rotation=-135;fillColor=#fff2cc;gradientColor=#ffd966;strokeColor=#d6b656;opacity=50;sketch=1;curveFitting=1;jiggle=2;shadow=1;" vertex="1" parent="raBx9LtuRQU_PqCKQz18-199">
          <mxGeometry x="486.46911652606497" y="141.40413085185898" width="183.00185257418283" height="308.88313520601463" as="geometry" />
        </mxCell>
        <mxCell id="raBx9LtuRQU_PqCKQz18-205" value="" style="html=1;whiteSpace=wrap;shape=isoCube2;backgroundOutline=1;isoAngle=15;rotation=-135;fillColor=#e51400;strokeColor=#B20000;fontColor=#ffffff;opacity=50;sketch=1;curveFitting=1;jiggle=2;shadow=1;gradientColor=default;" vertex="1" parent="raBx9LtuRQU_PqCKQz18-199">
          <mxGeometry x="579.4611619806107" y="173.28487281636495" width="183.00185257418283" height="308.88313520601463" as="geometry" />
        </mxCell>
        <mxCell id="raBx9LtuRQU_PqCKQz18-206" value="&lt;font style=&quot;font-size: 50px;&quot;&gt;&amp;nbsp;Mel Spectr&lt;/font&gt;" style="text;html=1;align=center;verticalAlign=middle;whiteSpace=wrap;rounded=0;rotation=-45;" vertex="1" parent="raBx9LtuRQU_PqCKQz18-199">
          <mxGeometry x="500.80000000000007" y="268.7704272099057" width="309.5750000000001" height="27.811422662933182" as="geometry" />
        </mxCell>
        <mxCell id="raBx9LtuRQU_PqCKQz18-207" value="&lt;font style=&quot;font-size: 50px;&quot;&gt;F0&lt;/font&gt;" style="text;html=1;align=center;verticalAlign=middle;whiteSpace=wrap;rounded=0;rotation=-45;" vertex="1" parent="raBx9LtuRQU_PqCKQz18-199">
          <mxGeometry x="165.54261363636377" y="131.56760466451473" width="64.77272727272728" height="27.811057253130915" as="geometry" />
        </mxCell>
        <mxCell id="raBx9LtuRQU_PqCKQz18-208" value="&lt;font style=&quot;font-size: 50px;&quot;&gt;F1&lt;/font&gt;" style="text;html=1;align=center;verticalAlign=middle;whiteSpace=wrap;rounded=0;rotation=-45;" vertex="1" parent="raBx9LtuRQU_PqCKQz18-199">
          <mxGeometry x="253.38" y="159.64" width="64.77" height="25.34" as="geometry" />
        </mxCell>
        <mxCell id="raBx9LtuRQU_PqCKQz18-209" value="&lt;font style=&quot;font-size: 50px;&quot;&gt;&lt;font style=&quot;font-size: 50px;&quot;&gt;F&lt;/font&gt;&lt;font style=&quot;font-size: 50px;&quot;&gt;2&lt;/font&gt;&lt;/font&gt;" style="text;html=1;align=center;verticalAlign=middle;whiteSpace=wrap;rounded=0;rotation=-45;" vertex="1" parent="raBx9LtuRQU_PqCKQz18-199">
          <mxGeometry x="338.86363636363626" y="173.2841905442112" width="64.77272727272728" height="64.89246692397215" as="geometry" />
        </mxCell>
        <mxCell id="raBx9LtuRQU_PqCKQz18-210" value="&lt;font style=&quot;font-size: 50px;&quot;&gt;F3&lt;/font&gt;" style="text;html=1;align=center;verticalAlign=middle;whiteSpace=wrap;rounded=0;rotation=-45;" vertex="1" parent="raBx9LtuRQU_PqCKQz18-199">
          <mxGeometry x="436.02272727272737" y="201.09524779734224" width="64.77272727272728" height="64.89246692397215" as="geometry" />
        </mxCell>
        <mxCell id="raBx9LtuRQU_PqCKQz18-211" value="&lt;font style=&quot;font-size: 50px;&quot;&gt;F4&lt;/font&gt;" style="text;html=1;align=center;verticalAlign=middle;whiteSpace=wrap;rounded=0;rotation=-45;" vertex="1" parent="raBx9LtuRQU_PqCKQz18-199">
          <mxGeometry x="521.79" y="230.25" width="64.77" height="66.58" as="geometry" />
        </mxCell>
        <mxCell id="raBx9LtuRQU_PqCKQz18-212" value="" style="endArrow=classic;html=1;rounded=0;strokeWidth=10;" edge="1" parent="raBx9LtuRQU_PqCKQz18-199">
          <mxGeometry width="50" height="50" relative="1" as="geometry">
            <mxPoint x="58.000000000000114" y="339.6265496955841" as="sourcePoint" />
            <mxPoint x="650.07" y="511.83350116885464" as="targetPoint" />
          </mxGeometry>
        </mxCell>
        <mxCell id="raBx9LtuRQU_PqCKQz18-213" value="&lt;font style=&quot;font-size: 50px;&quot;&gt;channel Layer&lt;/font&gt;" style="text;html=1;align=center;verticalAlign=middle;whiteSpace=wrap;rounded=0;rotation=15;" vertex="1" parent="raBx9LtuRQU_PqCKQz18-199">
          <mxGeometry x="69.99666666666668" y="442.376836899838" width="483.33333333333337" height="34.4155592519331" as="geometry" />
        </mxCell>
        <mxCell id="raBx9LtuRQU_PqCKQz18-215" value="&lt;font style=&quot;font-size: 60px;&quot;&gt;Sound Segmentation&lt;/font&gt;" style="text;html=1;align=center;verticalAlign=middle;whiteSpace=wrap;rounded=0;fillColor=#d5e8d4;gradientColor=#97d077;strokeColor=#82b366;strokeWidth=0.2;dashed=1;" vertex="1" parent="1">
          <mxGeometry x="-1520" y="820" width="640" height="112.92" as="geometry" />
        </mxCell>
        <mxCell id="raBx9LtuRQU_PqCKQz18-217" value="" style="group;movable=1;resizable=1;rotatable=1;deletable=1;editable=1;locked=0;connectable=1;aspect=fixed;" vertex="1" connectable="0" parent="1">
          <mxGeometry x="-950" y="544.08" width="890" height="784.48" as="geometry" />
        </mxCell>
        <mxCell id="raBx9LtuRQU_PqCKQz18-143" value="" style="shape=image;verticalLabelPosition=bottom;labelBackgroundColor=default;verticalAlign=top;aspect=fixed;imageAspect=0;image=data:image/png,iVBORw0KGgoAAAANSUhEUgAAAZAAAAEsCAYAAADtt+XCAAAAAXNSR0IArs4c6QAAAARnQU1BAACxjwv8YQUAAAAJcEhZcwAADsMAAA7DAcdvqGQAACqpSURBVHhe7Z1ByCxZmabvcqA2Upvr5kJTYOHSZS976dKlG6GX4mZaG4YCFzWLAV3YSG+6wYUKLnqj1GzEHqZECpHComlFZUoG7S6k0FGcqaZACynkn//J+723zo0b+WdEZpz8MyKfB4LMiIw4cc53vvO+JyLzj/+BiIiIiIiIiIiIiIiIiIiIiIiIiIiIiIiIiIiIiIiIiIiIiIiIiIiIiIiIiIiIiIiIiIiIiIiIiIiIiIiIiIiIiIiIiIj04EZEZGOUvElvKt4iIpuh5E16U/EWEdkMJW/Sm4q3iMhmKHmT3lS8RUQ2Q8mb9KbiLSKyGUrepDcVbxGRzVDyJr2peIuIbIaSN+lNxVtEZDOUvElvKt4iIpuh5E16U/EWEdkMJW/Sm4q3iMhmKHmT3lS8RUQ2Q8mb9KbiLSKyGUrepDcVbxGRzVDyJr2peIuIbIaSN+lNxVtEZDOUvElvKt4iIpuh5E16U/EWEdkMJW/Sm4q3iMhmKHmT3lS8ReSeeeeP79c7OZWSN+lNxVtE7pmPf+XHN6/89He1JqdQ8ia9qXiLyD3zV//wrzdfe+PXtSanUPImval4i8g9o4EsR8mb9KbiLSL3zEe/+PrNy//8b7Ump1DyJr2peIvIPfMX/+0HGshClLxJbyreInLPaCDLUfImval4i8g9o4EsR8mb9KbiLSL3jAayHCVv0puKt4jcMxrIcpS8SW8q3iJyz2ggy1HyJr2peIvIPYOBvPTtX9SanELJm/Sm4i0i98yHPv/azV//0/+qNTmFkjfpTcVbRO6ZB5/7rgayECVv0puKt4jcMxrIcpS8SW8q3tIJnq767//3vVoT2Y8Gshwlb9Kbird0gkd0f/m1X9WayH40kOUoeZPeVLylEzxh1Z9myhQ0kOUoeZPeVLylExqITEUDWY6SN+lNxVs6oYHIVDSQ5Sh5k95UvKUT/nGYTEUDWY6SN+lNxVs6gYEoCjIFDWQ5St6kNxVv6YQGIlPRQJaj5E16U/GWTmggMhUNZDlK3qQ3FW/phAYiU8FAPvHVn9SanELJm/Sm4i2d0EBkCu/88f2dgfCrPTmdkjfpTcVbOqGBnManv/nzmzd/+4da2y487kYDWY6SN+lNxVs68eGXv6+BnAAG/LU3fl1r20UDWZaSN+lNxVs6gSh88hs/qzWZiwYix1DyJr2peEsnFIXT0EDkGErepDcVb+mEonAa3AK8hqcZayDLUvImval4SycUhdMgftfwLDENZFlK3qQ3FW/phKJwGhqIHEPJm/Sm4i2dUBROQwORYyh5k95UvKUTisJpaCByDCVv0puKt3RCUTgNDUSOoeRNelPxlk4oCqehgcgxlLxJbyre0glF4TSIH48z2ToayLKUvElvKt7SCUXheH7z7p928buGR8F87xf/z1xZkJI36U3FWzoQAfzLv/+X2iJzyKxcA5G5lLxJbyre0oEIII/jkPlcm4F86POv3Xzs796oLXIKJW/Sm4q3dEADOY1rMxDyxFxZhpI36U3FWzqggZyGBiLHUvImval4Swc0kNPQQORYSt6kNxVv6YAGchqJ38e/8uPasl00kGUpeZPeVLylAxrIaSR+1/DLJA1kWUrepDcVb+mABnIaGogcS8mb9KbiLR3QQE5DA5FjKXmT3lS8pQMayGloIHIsJW/Sm4q3dEADOQ1EVQORYyh5k95UvKUDGshpaCByLCVv0puKt3RAAzmNazKQ77z5+5uPfvF1c2UhSt6kNxVv6YAGchoYyIdf/v5OWLfO19749c4ozZVlKHmT3lS8z8YnvvqTm3f++H6tbZsfvf3uThB4SJ7M55pu62ggy1LyJr2peJ8NZuTMzK8BBBBRoM0yHw1EjqXkTXpT8T4LuaXz+lv/UVu2jQZyGhqIHEvJm/Sm4n0WYiAIwzWggZyGBiLHUvImval4nwUNROaggcixlLxJbyreZ0EDkTloIHIsJW/Sm4r3WXjzt3/YiSm/eb8GNJDTuDYD+eQ3fnbzn/7L92qLnELJm/Sm4n0WEATElMFyDWggp3FtBsI/zjJXlqHkTXpT8T4LGojMQQORYyl5k95UvM+CBiJzuKbHe2ggy1LyJr2peJ8FDUTmQJ4QPw1E5lLyJr2peJ8FDUTmQJ5cyxfLGsiylLxJbyreZ0EDkTlck6hqIMtS8ia9qXifhRjIF159q7ZsGw3kNDQQOZaSN+lNxfss8KUoA+Tlf/632rJtNJDT0EDkWErepDcV77PAILlGA+Ee/nvv/7m2ylQ0EDmWkjfpTcX7LFyrgfAromt5hP2SaCByLCVv0puK91m4NgOJKGggx6GByLGUvElvKt5nQQOROWggciwlb9KbivdZ0EBkDtckqvwy8aVv/0IDWYiSN+lNxfssaCAyh2syEMYEiwayDCVv0puK91mIgfzNf//ftWXbaCCnoYHIsZS8SW8q3mchBoIoXAMayGloIHIsJW/Sm4r3WdBAZA4aiBxLyZv0puJ9FjQQmUPi9+GXv3/zm3f/VFu3iQayLCVv0puK91nglyaIgQYiU/jya7/afV92DfGLgfjUgmUoeZPeVLzPAgMEMdBAZAoR1WsyEHNlGUrepDcV77OggcgcNBA5lpI36U3F+yxoIDIHDUSOpeRNelPxPgsaiMxBA5FjKXmT3lS8zwID5GN/98bNJ776k9qybTSQ09BA5FhK3qQ3Fe+zwADh8eYs14AGchoaiBxLyZv0puJ9Fq7VQGgv/xtE5qGByLGUvElvKt5nQQOROWggciwlb9KbivdZ0EBkDhqIHEvJm/Sm4n0W9hkI4rrFQRNR0ECO45pE9Zraeg5K3qQ3Fe+zEDEdGsjHv/Lj3WdbI6KggRxH4jdVVLnae+eP79faupjbVrmbkjfpTcX7LPBcI37COzQQftrL4N8aEQUN5DjmxA/j4EGEa41z2qqBLEPJm/Sm4n0WMIl8J9DCoNFAZMic+CG6GAjfO62RtFUDWYaSN+lNxfssYBL83+ePfvH12vIYnkC6xT8unCOA8ixz4vfmb/+wM5B//MHbtWVdpK0ayDKUvElvKt5nAQPJIGlh4A+vSrZAROGT3/jZzT/96/+prTKVxG+KgfA5ecT+a4Tbuzy+XgNZhpI36U3F+yyMGUjuXY8ZCFcra565RwBp91pvrdwnid8cAyFn1khyRANZhpI36U3F+yyMGUjuXY8ZCPt9+ps/r7X1oYGcRmblcwyEWK8RDWRZSt6kNxXvs3CXgQy/F4EPff61UWNZCxrIaSRuUwyEW4RbMxD/M+HxlLxJbyreZ+EuA2m3hX3GshY0kOP40dvv7l7nGAj78e+S+ZuiNTI0EAxxrW25BErepDcV77MwZiAIA+tDA2H2xa+zuApZKxrIfDKh4LuxuQZCDq31ijVt/cu//5eb19/6j2fGicyj5E16U/E+C3MMBCFhG2KyVjSQ+SCe9Dn9P9dA+INUljUybCvf/a059++bkjfpDYl6rnutDBK+FG2vKvYZCELCbIztiMka0UDmQz4cayDsN8yjtTBsK+sayPGUvElvpgzOpcggaQcG58YouF3Vwnbqxowy98TXhgYyn3wZzgRijoF84dW3dvvzPcgaGbaVdeKw1md73Tclb9Ib/gL8lZ/+rsLelwyS1kAQDP7QbjjbioGc0+CWZmggEQbZT/IjsWJ9yh9iJtbDPFoLaWvynVfastar7/um5E16k8Q9BxGCdpBzbuqwz0DW/FfcQwPh/VpvsZwL4jQ0kGGOfufN3z9z2zWx5vboGmftaaMGsgwlb9Ib/nKXy/9zkMExxUByZcJ3NGt/vlHEgViv+Vdl54C+PmQg3KYaTioS697fmfW6nbrPQHjGl8yn5E16k4HXEwYHM8Y5BpLt56hfL1L3iMNYO+VpiNchA+FzfozRkljnZ7A9yGN3epSfNg4NhPcyn5I36Q0zvp6PC2E2yEBg5jZmIDl/uw0iHL3r15NcPbVCSDv9C+P9xED4Xq6NWwzkN+/+afc5+7XEQHre8iSHOXfqsiRpY8YIV1IsGshxlLxJbzJAe5Hf9WdWxSu/uIqIZuBzWwJxCKlXbmWtkaEA8kosvK+9H3IhIj2MH2RCwnOyWvLcrORTDzL56XHLN23saSBr/TXjMZS8SW+Y6fX8XxwZdBhBOzgiohnw7TaIcJD05/jjMG5PLH1lMBRAHk2hgdzNIQPJ//1gW0v26TnhoGzO3eOJv6l/O0Z4jA8/GFiCXD21k7QtU/ImvSFZSdpeYFARhDkGwmySWSXCPvzimauapU2P8pYWhohC2kj7iUWve/RbILcziVvil1fIhIRtLdnnmAkHEwf6/9AEgvLHzr0EqX87Rnifdp8KRkTdr+UqpORNesOMrucDCzPoMATOw/mmGEi2w/CnmQg9ZY7N5NmPATgX6rb0w+siCmlLDOSY+l0LxIwYEbfEL68QAxn2VfbBBIZ/lHqIlHnI2OlDzOnUyQu3wIbf06T+vQyEcraee5hj8qLkTXrDJW3717vHCvA+krgMvphEaxb5ovkuA2HAtn/sGJEZ+wNIjjnmr5ExqaWNNKKQtiA+nGfLg/hU0rfELfHLKzCTxiAQ1/aKAeHI7R76kQnLXbey2pl4cjTHj+UV0Iecl+UUqN/QhNLGGAj1adt9KsSDMofGdRfEt524zYVjD13VLQmxyuSh5E16Q7ARNZIVmB0t+TgIBh2Jy2tMIoMEMkjuMpB8f5LfxPMewRi75cTA5HxzEh8TJQYsh6DcqbcB0ra0hTZS96VEYYsQM/qPGCV+eQVeE0f6OoLY5hTb6cuIyVDEWOdzJi4QcaXs/OhjrI+pBzl3ykSDc1Mvfm7ckjamHdShbfepkH9p41Qw4GE9D0F/pE84/py/oES7aCM8+Ox3/2tJnPSEYDPzimnkHvRSX7YlcSOg+wyEQdn+0VREN7APxzMAmckzS2R9SJ6rlbIQh33fbaQO1ImyOO7QjInvZaYabNqWtkT4lhIF6pJZcw8oOzGfwym5E/EnRsmTNhfYTv9nyfY2p9hGzlFO+raNE7nB5/klV/bHUCif92MzdfqTfcfybirUh/KHZYwZCHm71C++aCv5HdOcAvsPx+UhGH/0C9DGuQZ0CunHxLgkTnpSsd8FHDKD33c/mGSaIyjp1Ay8fQbSbgP2Z2khGalXykHIh2LFZywpi2QemzFmkFIOZVJ2ym0ZXsm0BsUslbrvo6eBYKBchVGfqVdEMNa+fbdsqD8xSvm8sm1YRgtlIdyHTIQcGhMz4sNCvJITbS4gqMxs08/Z3uZP2kRsiDVtoN4hfU+uA5+lrMxix4Q7/cnnc0kece7kUEtuwaUdnKNt9xjEeGyGTx2pK+ckzuzXtnEK9DVjhwnYnKsIxiRt49y0gXMC5SWP0k9ToJy78q0l341yngefe/WdkjjpScV+19F0FAlMEozNwIDP9s3oW2IyJC5lJoE5R3u/OoOyFQAYGzwIB/UiQSm/LSeQQCmTfdh3bMBHKDie83J+Fo5j0ACfDcWQdfZDoHhlfR+pR9rCvswEpw5ioC5jAyhlE4+77vW3MBipQ9t/iEMG/JCYb3IB4aPubNs3qGkf50gM90E5xH8oJukHPueVz3mfmPGaXOI8Ebfs24JB8Dn1jZABcWMb7YGUl/Okn4Yk35J/Y1AHzjv8nPO1/TXMydQ/r3zetnsMYjyMYcogv6kHfU07ed9esR2CuhIXoN379GAI9SGWxIk2p52UQb1yi5DyiRH7jE1WYzbUnXofmpAA9U3Ztwby7yVx0pOK/a6TMuugs8dmYIgGgycDDzhmbDCRLElC3meQUgbv+Sz7tQMntPuEXNInKRnkrVCRZBhctqc9Y1cqCEuSjWSnzQxs9mU7gko5rCcWMaTUA6Fh2ZfcaUOEgHIPiUILseIYyuHc1CdCn/6KKdwFdWVfTI/jWjFNfIhBC+eLQBPLtB1a0xoaCf3IMYdMjTqwT5tntIXjWYhRcqKNGbGnfI5PbGCYP8Bn5Cr78xqhoj0IauLAsawTX45JLgDtTvxzjuTxGBk/w7ykrpTJ9uRVmzcpm32I75RcSTnthCB5AdSTPsyYTRupe/KIdo3lL23O+KNe1O8QlMs5OQ8xJw4xW7bznu2YBuVTT9rZ1h+4MmVfcpJ6U+c2nmFYd8qkPOqtgZyJiv1TgyODNJBsdBQdQ1KQtEACJGFa6NgMbhbK5pV9STLeJzlz3ryGdp9AYnF+ygHEp00+6sMAynaOp5x2UAXKITkZoNmP46g35SM27EM5GTzctspMMnFohWlI2hAhoOxhnfdB/BETFkSAtvOaYzMwgTrtu09N3VJPjuX8lJM+5bOxAZpYpu5ZB85LGWxP2bwH1ulH6jQG5+V8tIs2Jc+oJ2UmnygvOZE6QGJKLJNjMMwf4JjEHPNMnqY8PgPqTz0oi4U4pf6IGPu1Ocr+iHwbs8y4aVcbK6BtEfH0QcZCSNmcn7rxeeq5jxhC8jN1DNQxgk1s2ZfyOS5xoz5tXYG84PzJL/qM4/cRIU+7OQ/n5NxpJ+3nM8ohbrynfqwP9SM5z7HEKuWSL6kTcB6257Y65XAcx2ggZ6L64kkC02kRaqBjSHw6io6l8yNeJEj2zQyWZGPAMOgokyUDM8nEe0QAct68hnafgAiQmBncfJ6BQLkMNpKI7dSVepN8lM2xJFwSMMLJAEo51J39cm7qS3Kybz6jfMqkfbznPAyEMVJOhIBj2joPyTmIA3WnbNpFPWhzBl6MLIzVgTrSNvomcaMcyk5/sfCecolFS8Q99U3bA4OUY4kn/c37CALwSntCBjntIha8b8vkPMSHhfOxT3Ii8YPEtN0XhvkDtIF9EpvUKXlLv0YsKZ+yhu0gNpTBOYk9cSXeHMv2tJEyiGfyK/sC5VEuZaav2s8h9U/bKe+uXAHKIPbElHPTh9R3COemrnxGeRzH0n5GHEJMriWxYonxUX/aT33JL+pPOxL35CvbaXuMkzJY5zji0eYycExyI/ElFuzLEiiLclioM+dmG3G4Pf+PSuKkJ9UXu8TKwGwFKh352NU/+IxXOpokaoWAV5KNjuRzOpWyWdhG8rWJnoGT15D6tPA5dSDps85xwCufUXYMLMlGWRkofEZSknQZoNSlFVASmyVGSZtoIzEgUYG2cPxw0LJ/1iMWKY/z55z5nDgGzkNsiRuDMCB4xJSyqRNlJt7Q1gvYj/pxzggB5VEun6XOOa7tv5D45zOOpx77YF/qnv5IzID6Uh/qnokGRPwg8WHh3KwnJxI/SL2yb+qdnGxJHmQ7OcD50y/JX+pFXfk852wnScSeWCV/eU+5HM9xlMH7ljamyS+OZ6FeOU/IetrOfskVtlPfIRF18pnjsz6Ec5PvqRNlsw68TztC4tJCbNiHz1hoA+cjlhlb5AjrHMs69aZetIPzQOrHsXxGu9i3hbrFOIakbtEhzknZ6TveE7PbMr9XEic9qX7ZBZ2BQcdCOrUVyCR8BmIGGQudnlc6OR2LQFAGicV6rhQiCEmIVnAgQtHCsdQrQtYOXM5L/Uk86sH2CEcGEPWlXhlIeW3rA+zD9sQin7exSIJHHEIGD3WNKOR4tuecaUvKY534UG62BdqTtlAm8W8Ng75In1B21vfBoKU/EoMMxpb0VUQgbdhHYh6hi/hB+nhI2gz0KfFgoW2caxg/yDaOY1/WIfUdkpyF9F/KoP3Uk9xIO1PXGBLr7Mf5cw76iBxJvYY5EFJWzks5GTPpr5A6EbOcKzFkSTsDZVBWoE5tW1s4D/2dNhI32swxlMH5kk+Uy2e8trAPMaGfaBP7UBavjBMWPsvYTF1oM2VnohBoP/WgLI6NsVAnytwH+cp5WZJrlEGssxCv27I1kHOw64Fb6Hg6OgM6g4WOZ7bRwr4MilZ0SBQEPNuS4BkIdHjKZL8kbLbR6a1hDNcDZXI8cBzHH0o6Bi/JGjOjLiR4BlSEIDDgKC9JH0GmjSRwSwwBSGTec66UzWvKH25nPcKzT4SG0HaOa8Un7Sf2lM0rArePxK0duBxPOSwZkJB99/XHPmJKlB8jHtKKIOVzHtqWeCVObb5kW/ZlHVinrneRGEfYOQf9xXr6JeWwnf2pe4S8jRek7xHnsSuEtCOfpy0wjGfaxXaOoR45L7nHeqAstrfjbwqUT04Tc45lPW2ifGLT9n0L/ck+aT9tJ1coh9yhjpRN3VuoJ+3n8xbikDZFY9iH4zPu9sE+bf4nR1k4H7G8zQ0N5BxUH+w6heCnU5PQw0EDdD6JE+EEkp19220kagZgOzgzMCDbWG8H1HA9UM9WKBCRfUkfSHb2o7wkO5C0JCuG2Aou7WV/Eh8idLQ5VwKhPTdt5zgWYpcYtrHNdupEmTnHPhEaQl3GzIHjWRjUCMFwBjmknS0Cdad+tDH1g5gTMWsH7RQ4jpi3OTGEGFBXzkn9yRfixZL4tfmSbcScY1mH5NFdRPCzLwt1JF4xvHzG+Smfc6XP6NeWHEMZxGlIjotAtgxzLu2inZybepAPxITPiEtI2xOTqVBfjqNsykyMgTbTx8RnTrkYO/uzUPYwN2PYY2VGVzgnZs3xxJhj5pDxSbs4D+d78NnvvlISJz2pPniSTEkoEpdkYHAMYTDQ0XR6oBMZTAyCQIeyH8JDuRmAmdFDBiwd3xoG558iqNSP/VLePqgXg5zzRQg5b5JuaFZsbwcDIjAWiyQv0H7MlbYiVrxyXuIU4YrocD7WE2+2Dc3pnBAL6sygjnkE+o1BiVnOgbjSxsy6x+Bzzk359CP75koh8WsNJHHiszZ+KecuYvbJQ+AY+jC5kM/YljyhDpynPS6QE/tmzDFf8oPyWhhvLCFtpZ2IcsZS2tnWi/L4bMy07oI2pi8ZX+Qkr4HPMaq5/Qy0hbKHucN2YnCXKfAZbeSVWB5zfs5NXHIX5dZAvlYSJz2p+O8GLp2XAUlHIMpZH8IgHw6KIRmswwEYEYUM/KGIZ0AdguOpazubngpiyYAZMyvq1EJS75uBR1wjFGlL2pD3aSuvDKwIbEThUqGO9N1cwSKmHHeXIGR2nthADKONH+uQ/TB3Ysg+7fa7SJzZd0j6JTnaQr7y2VgfUbe72kdusAxh/NCmHJu2sq1te/Im8Wf/sfKmwPGUQ5mMF8bg3Nn+PtLXw0kQ/cT21iyHZB9ieSyJETrGmNZAzkTFf9d5dEIGJJ3KgDlGmAMGRJkZCHRwiNhmG4OmTaAMoEOwH8tdCXoXnH/qufaBgTEQc5uB9VyJUC7t4j2xaA2E/YhDbqVdKtRt7OprCoeuqpgFM2ttc4N4tSKadUgMIXkF7fa7YP99V6vUob1VFCiXzzjHXBD8MYOhTZSZiVTaOmYgxJ6FejAuTxmTlEP55B/nv+vqcA5MxsjnIenbdmwP4VhMMbe0joE4MpYSVw3kTFT8nwQ+A3XsNtVcSCjEJwOB8kIGfLZx3jbJMoAOgQAxKO5K0LtAMHK74Fg4ljrEBBicLGkDdeN9BChxZjvnZ99TRKE31O3QLcJjoWxEjPgF4tKKaNYhEw8gfxLTqQaCmO/bj36JoLdkonOMgewj44v2QNpKO9u285p6YcYx3GOhHMYlMaXc4ZX30hBvzrPv6n0pcos47Xrwt69+oSROelLxf3IJmoHKoGFwnzIrYKCSQLllRfkhAyTbMmsP+fwQzPwpY8q+Y6ReU8RnH8QKAcztgDkGgumwnGLUvaF9c29fTYU+x5za2zIxjDZ+ycs2h44xkLvAzDnnGJw3E4QlIKbJXUhbaWfanvaxTz4/tZ3kJeUwJin30BXiqdBOzslrT9AqcuiJgfg49/NQ8d8lFYHvMRNuB0IY3rqI6IYMmEMkYY4VOM7D8aeKD3VNHdKWtIE68j5i1171IBa5jXWNkAOYL/kQhgbC5IbvqRChzNgheQWUcarJUVb7pXLLXeZyCpTLJC1tHRoIuUm9MFni0F6pncqpOX9JkEdMRrjSIWYayJmo+O+Sl8C3Ir4UYwbCIOFcEYCIbsiAmsLU/cZAuNp6LcHYr4gwjMxgeY1pcIWWK5drBFNARIlRGBoISwQ1+QLt+hJ9yDn29QXn2Wcup0C5tCNt3WcgbKNux36Bfi0QQ2L24LOv/k1JnPSk4v7kkvZcBsItK652IgCclwGSK6AMqN5wviVndTAUQNZpJ+vAK7EgLvLB3wOExC/iGgPBbFsBTV5Bm1vHwgyfc4zB+XtcnaeNyZXWQPKrKdrMubkKaa/U5FmeGMjnXv3rkjjpScV9l8QEvp0JLkUGejvIMYyIRNYjrJAB1Rt+1bLkvW04ZCB8Rjt7fa+wdvYZCLcn2i/zlzaQu6AOnG9pkiN5xSh4n6sd2sU644Or1rFfOskHZCKsgZyJivvuVgKBP+UXHvsYMxBu8zAwMqNkgPCefZiRcsun9xd84ZQfCowRAUwbhgbClVZ7L1+eZp+BtFeocE4D6QXtag2EcUCbaD/Qrnz/wXsmPLIfcoI4Pfjb//lXJXHSk4r7Dgbn0mIKYwYyFFXWdx1/u2R/XtfIUACHbUUM8l6eZRg/bivxPQlLe9WWPIE2t9ZEjCNtHRoIbWZc5me/1/pji6lkIvzgP/+Pj5XESU8q7l3Jr2cYDCG/vrlGAwFiIuPkVlXix0JejN3/Z3v7ujYOGQjv2Ua+8CqHYcJR8ia9qZh3hwHOYAgMGrblXm9rINz2yYBaI5gjYpc2cMWBeXrVMY3c0kn8YiBjAsr29nVtYBSZYIwZSK4+ZB4lb9Kbind3GOAMjLCbJdxuy0BpDaSdka2RoQDGLNsvgGU/w/jl10hj9//Z3r6ujUMGIsdR8ia9qXh3hwHOwAgMFrbld/f5kpBlqwaiKExjGD8gfmOPw2B7+7o2NJA+lLxJbyre3WGAMzBCvuzKbYmILIsGct2MGQgTjLHvjYgrP/xov19bE2MGwneDmVjJcZS8SW8q3t1hoLcGAgx6Bg9oIBLGDGQfxJV9hrm1FviOg1tzaSsGQpsysZLjKHmT3lS8u8OgGA7y9q9+I7L8WotbFVPE41LRQE7jmgwEo2BJWzWQZSh5k95UvLvDALlrkDN4YjJclSzxcLz7QgM5DQ1EAzmVkjfpTcW7OwyQuwY597EZOPw1OgbC+7XCzy55PEpEQQOZhwaigZxKyZv0puLdHQbIoWdO8fcT+VJxzQYSQYsoaCDzmGMgXKlyK5R914gG0oeSN+lNxbs7DBBE4RBbNhBFYRpzDIR92J/XNTI0EL5QN1dOp+RNelPx7g4D5FoNJM8xUhSmkVuA/Erv0LPZiPGaDQTD4JdYyZXk/lL/q/xaKXmT3lS8u8OTaa/VQFg0kOkkflNygP3WbCDkOjmfXEnu8yrHU/Imval4dwfzmGIg+d/oWzCQ/JJMA5mHBqKBnErJm/Sm4t2dqQaCyLJswUDSBg1kHnMNhB9ftP+pcE1oIH0oeZPeVLy7g3lM+XecGojMNRDEdsrk5BKJgeRqVQNZhpI36U3FuzsMcAbKIbZgIAgBgjA0EEVhGtdoIGmrBrIMJW/Sm4p3d/i/H1MNJJf0awYRiChoIPO4JgPJ/45JWzWQZSh5k95UvLuDKVyrgeT/WSgK07gmA8nfvKStMRC2y/GUvElvKt7dwRimCOgWDQR4r4FMY46B8OX5l1/71WYMhHXeayCnUfImval4XwyIQf4d7JpBBFoB5D23K+QwcwwE8WXSoYFIS8mb9KbifTHkdsQWDURRmIYGYq6cSsmb9KbifTFs1UBoT/v/T2Q/+Q+D12ggmCfveZyLHE/Jm/Sm4n0xbNVADj3TSZ5mGL99bNVAeJXjKXmT3lS8L4atGEj7dyAynzkGwv8Pn/JHqpfIm7/9w+45cRrIspS8SW8q3hfDVgyE+vPveeU4EFFuYx2CXJn6E/FLBKMgV2Ig773/513erPW/cV4KJW/Sm4r3xYCBMKAQhjVDG9ZugvcJgjolflszEPB25+mUvElvKt4XgwYicC0GMucHAzKdkjfpTcX7YsjPGDWQ6+ZaDARoq7c7l6XkTXpT8b4YNBCBqQby8a/8ePJz1i6VqW2V6ZS8SW8q3heDBiIwVVQxjlyFrBUNZHlK3qQ3Fe+LQQMR0EDkFErepDcV74thKwZC/RWF4+E7AQ1EjqXkTXpT8b4YNBABYqeByLGUvElvKt4XQwxkzYIAGshpzDEQ9uNxJmuFn/GaK8tS8ia9qXhfDDzaYSsGsvarqPvkmgxkaltlOiVv0puK98WQZwFpINcNgjolfp/+5s93M3gNRFpK3qQ3Fe+LQQMRmGogGAf5ooFIS8mb9KbifTFsxUCovwZyPNdmIPxrXlmOkjfpTcX7YuAppBqIXJuBmCvLUvImval4XxQIwkvf/kWtrRMMZK3/o+IS4H9k8IiSQ2zBQDAPDWRZSt6kNxXvi2LtggB8ubv2q6j7BEGdEj8NRMYoeZPeVLwvii0YCPXHROQ45hrIl1/7VW1ZHxrI8pS8SW8q3hfF2n+WCXyX43+VO56pBvKPP3h7ZyD8H5m1ooEsT8mb9KbifVHwpeIXXn2r1uQamWogGMfaDYTvyvy+bFlK3qQ3Fe+LAgNZsyDI6fB/PqbcAtyCgWCUU8xSplPyJr2peF8UzD5f+envak2uEQR1ym1MDUTGKHmT3lS8Lwq/OxDMY4opbMFAuF3rLdtlKXmT3lS8RVbJFgxElqfkTXpT8RZZJTEQb3lKS8mb9KbiLbJKvvPm73cGwv+REQklb9KbirfIKsk/INNApKXkTXpT8RZZJRqIjFHyJr2peIusEg1Exih5k95UvEVWSQzkR2+/W1tENJCzUfEWWSX5B2S8ioSSN+lNxVtklWggMkbJm/Sm4i2ySnhqAc9Oe+/9P9cWEQ3kbFS8RUQ2Q8mb9KbiLSKyGUrepDcVbxGRzVDyJr2peIuIbIaSN+lNxVtEZDOUvElvKt4iIpuh5E16U/EWEdkMJW/Sm4q3iMhmKHmT3lS8RUQ2Q8mb9KbiLSKyGUrepDcVbxGRzVDyJr2peIuIbIaSN+lNxVtEZDOUvElvKt4iIpuh5E1685nPfKZCvn5++ctf3nzpS1+qtfXz9a9//eaHP/xhra0fc+1y2VqufeQjH3mlJE568uKLL1bI1w8D4FOf+lStrZ+XXnrp5lvf+latrR9z7XLZYq6VxElPHNSXiwZyuZhrl40GciZuA/0ewXZxcXHZ0PJeSZyIiIiIiIiIiIiIiIiIiIiIiIiIiIiIiIiIiIiIHMHzN49efOHm4XMPVvZn/xPq/dzDmxee/FXqpbdxRj/s2rWF9jx38/CFD/5y+IWHz11oeya05flHT9px+bnWsKoxMmBO3dfczsuFgbHGgE6p9+N9Hj1fn+8G+KOb5x9cYjvn9cPzjy69z6a1Z9eOFx7ePEefXKwpzs+15x6+cMG51rKmMTJkTt3X3M4L5XGS3876Hj1awWz2AybXmySJOD3ecJtEl9fO2f2wa9cLF9tn09tzmf3RMivXnhKky2/bjpWMkVHm1H3N7bxUnnv++Quf+Y1zfL0vM2nmtYc23ArVBffZ5PbsPr/sWeD0vqFfBlcgTwnWWlizsM6p+5rbeWlcsBjdycx6P3W75BKZ0B6Eafc9wRr67FAda1b4fM3yWZ7cYrg0JsX7sYns2rJK81jBGLmDOXVfczsvjzWI0Rgz6v34VsTKBZfPk/Rr6LNDddzd9nnxgy/OL7lNB+v22DyetGXXtnXdY1/FGNnDnLqvuZ2XyRrEaIyJ9V5NwhxoD7OmJzP0NfTZoTo+I7KPf5F1kVchh9qy+3z4HcgFX1EN0DzkeNYgRmNMqPeqEubO9jS3R4bLo+cvs22zRXdLBnLBbRmgechpHBocl8qkQb2ids2p7xraNqGOXFWt4rbPwbY8NozV3cJa2xhp2dp4WS1rDe4z9X561rf7omxkxn6xs8ID7XmKNfTZpPY83raNvmmvEi+8b4rVjZGGu+u+ci0QEREREREREREREREREREREREREREREREREREREVkh+evxe35UB38d7iO5RUTugXqc+rTl2QcF3reB8HC8J8+eEhGRM4KBDGbwj59YOnhG0EU+dwsTW8fzpkREtsetgQwfJjdqILc89/DRZYm1t69ERC6LfQZyaXj7SkTkwphmIPXY8uEVQH2n8ljY8z0JS3Orqf3eZfQKoj2OZex7lrHbV8PjbhevUEREzsdBA9ljAO3/W3jh4cNbg4nA539kPLp5SNn574lPmU3xzHctHxz7lImM3L7i/G2dd/XRQEREzse0K5Ca7Q8F+om5PC34MZenbzk9W8bQBCD1aY999vbVY6N5+tjbbRqIiMj5WMJAnhb3lLnnltOTMnK1sWd58n/fOW7/7avhuUVE5Ezcm4Hsbl8dOu8t+359VcfHcDQSEZEzc98Gckj4KeuufdrvYp6pn4iI9OPeDCS3sEZF/3bfh9zC4phhOZDPQ5V9sB0iIrIY92cg7dXDs1/C7+qz7/bVmLFMvKIREZGFiIifYiAffOH9mPEyR36iO/ge48lS59l/+ypXHE1Zu7qMXa2IiMii5MpjuDxjJM+I/GORfuq7h91yK+ZjhoC5xGia5YPzDH6Ndeevr0IMpF2evooRERERERERERERERERERERkYvjwYP/D1ehNwKCbn4jAAAAAElFTkSuQmCC;" vertex="1" parent="raBx9LtuRQU_PqCKQz18-217">
          <mxGeometry y="160.91897435897437" width="831.4079958974359" height="623.5610256410257" as="geometry" />
        </mxCell>
        <mxCell id="raBx9LtuRQU_PqCKQz18-216" value="" style="group" vertex="1" connectable="0" parent="raBx9LtuRQU_PqCKQz18-217">
          <mxGeometry x="123.99724137931017" y="45.918998974358985" width="600.4813218390807" height="628.5897435897436" as="geometry" />
        </mxCell>
        <mxCell id="raBx9LtuRQU_PqCKQz18-132" value="" style="line;strokeWidth=10;html=1;fillColor=#e51400;fontColor=#ffffff;strokeColor=#B20000;dropTarget=0;" vertex="1" parent="raBx9LtuRQU_PqCKQz18-216">
          <mxGeometry x="40.229885057471265" y="135.7753846153846" width="37.262931034482754" height="10.057435897435898" as="geometry" />
        </mxCell>
        <mxCell id="raBx9LtuRQU_PqCKQz18-115" value="" style="line;strokeWidth=6;direction=south;html=1;perimeter=backbonePerimeter;points=[];outlineConnect=0;fillColor=none;fontColor=#ffffff;strokeColor=#B20000;dashed=1;" vertex="1" parent="raBx9LtuRQU_PqCKQz18-216">
          <mxGeometry x="27.205459770115127" width="10.057471264367816" height="628.5897435897436" as="geometry" />
        </mxCell>
        <mxCell id="raBx9LtuRQU_PqCKQz18-124" value="" style="shape=waypoint;sketch=0;fillStyle=solid;size=6;pointerEvents=1;points=[];fillColor=#e51400;resizable=0;rotatable=0;perimeter=centerPerimeter;snapToPoint=1;fontColor=#ffffff;strokeColor=#B20000;strokeWidth=10;fontSize=100;" vertex="1" parent="raBx9LtuRQU_PqCKQz18-216">
          <mxGeometry x="23.182471264368" y="130.74666666666667" width="20" height="20" as="geometry" />
        </mxCell>
        <mxCell id="raBx9LtuRQU_PqCKQz18-126" value="" style="strokeWidth=20;html=1;shape=mxgraph.flowchart.extract_or_measurement;whiteSpace=wrap;fillColor=#0050ef;fontColor=#ffffff;strokeColor=#001DBC;" vertex="1" parent="raBx9LtuRQU_PqCKQz18-216">
          <mxGeometry x="172.58620689655208" y="140.80410256410258" width="2.514367816091954" height="5.028717948717949" as="geometry" />
        </mxCell>
        <mxCell id="raBx9LtuRQU_PqCKQz18-151" value="" style="line;strokeWidth=10;html=1;" vertex="1" parent="raBx9LtuRQU_PqCKQz18-216">
          <mxGeometry x="77.49281609195421" y="251.43589743589746" width="70.40229885057471" height="30.172307692307694" as="geometry" />
        </mxCell>
        <mxCell id="raBx9LtuRQU_PqCKQz18-153" value="&lt;font style=&quot;font-size: 25px;&quot;&gt;Systole&lt;/font&gt;" style="text;html=1;align=center;verticalAlign=middle;whiteSpace=wrap;rounded=0;fontSize=8;" vertex="1" parent="raBx9LtuRQU_PqCKQz18-216">
          <mxGeometry x="66.38936781609218" y="218.7492307692308" width="104.68821839080461" height="40.22974358974359" as="geometry" />
        </mxCell>
        <mxCell id="raBx9LtuRQU_PqCKQz18-154" value="" style="line;strokeWidth=10;html=1;" vertex="1" parent="raBx9LtuRQU_PqCKQz18-216">
          <mxGeometry x="198.18247126436802" y="251.43589743589746" width="110.63218390804599" height="30.172307692307694" as="geometry" />
        </mxCell>
        <mxCell id="raBx9LtuRQU_PqCKQz18-155" value="&lt;font style=&quot;font-size: 30px;&quot;&gt;Diastole&lt;/font&gt;" style="text;html=1;align=center;verticalAlign=middle;whiteSpace=wrap;rounded=0;fontSize=8;" vertex="1" parent="raBx9LtuRQU_PqCKQz18-216">
          <mxGeometry x="198.18247126436802" y="191.09128205128206" width="120.6896551724138" height="98.06" as="geometry" />
        </mxCell>
        <mxCell id="raBx9LtuRQU_PqCKQz18-157" value="" style="line;strokeWidth=6;direction=south;html=1;perimeter=backbonePerimeter;points=[];outlineConnect=0;fillColor=none;fontColor=#ffffff;strokeColor=#B20000;dashed=1;" vertex="1" parent="raBx9LtuRQU_PqCKQz18-216">
          <mxGeometry x="70.4123563218393" width="10.057471264367816" height="628.5897435897436" as="geometry" />
        </mxCell>
        <mxCell id="raBx9LtuRQU_PqCKQz18-158" value="" style="line;strokeWidth=6;direction=south;html=1;perimeter=backbonePerimeter;points=[];outlineConnect=0;fillColor=none;fontColor=#ffffff;strokeColor=#B20000;dashed=1;" vertex="1" parent="raBx9LtuRQU_PqCKQz18-216">
          <mxGeometry x="150.91235632183927" width="10.057471264367816" height="628.5897435897436" as="geometry" />
        </mxCell>
        <mxCell id="raBx9LtuRQU_PqCKQz18-159" value="" style="line;strokeWidth=6;direction=south;html=1;perimeter=backbonePerimeter;points=[];outlineConnect=0;fillColor=none;fontColor=#ffffff;strokeColor=#B20000;dashed=1;" vertex="1" parent="raBx9LtuRQU_PqCKQz18-216">
          <mxGeometry x="188.1250000000002" width="10.057471264367816" height="628.5897435897436" as="geometry" />
        </mxCell>
        <mxCell id="raBx9LtuRQU_PqCKQz18-160" value="" style="line;strokeWidth=6;direction=south;html=1;perimeter=backbonePerimeter;points=[];outlineConnect=0;fillColor=none;fontColor=#ffffff;strokeColor=#B20000;dashed=1;" vertex="1" parent="raBx9LtuRQU_PqCKQz18-216">
          <mxGeometry x="308.814655172414" width="10.057471264367816" height="628.5897435897436" as="geometry" />
        </mxCell>
        <mxCell id="raBx9LtuRQU_PqCKQz18-161" value="" style="line;strokeWidth=6;direction=south;html=1;perimeter=backbonePerimeter;points=[];outlineConnect=0;fillColor=none;fontColor=#ffffff;strokeColor=#B20000;dashed=1;" vertex="1" parent="raBx9LtuRQU_PqCKQz18-216">
          <mxGeometry x="355.0790229885059" width="10.057471264367816" height="628.5897435897436" as="geometry" />
        </mxCell>
        <mxCell id="raBx9LtuRQU_PqCKQz18-162" value="" style="line;strokeWidth=6;direction=south;html=1;perimeter=backbonePerimeter;points=[];outlineConnect=0;fillColor=none;fontColor=#ffffff;strokeColor=#B20000;dashed=1;" vertex="1" parent="raBx9LtuRQU_PqCKQz18-216">
          <mxGeometry x="438.55603448275883" width="10.057471264367816" height="628.5897435897436" as="geometry" />
        </mxCell>
        <mxCell id="raBx9LtuRQU_PqCKQz18-163" value="" style="line;strokeWidth=6;direction=south;html=1;perimeter=backbonePerimeter;points=[];outlineConnect=0;fillColor=none;fontColor=#ffffff;strokeColor=#B20000;dashed=1;" vertex="1" parent="raBx9LtuRQU_PqCKQz18-216">
          <mxGeometry x="481.80316091954046" width="10.057471264367816" height="628.5897435897436" as="geometry" />
        </mxCell>
        <mxCell id="raBx9LtuRQU_PqCKQz18-164" value="" style="line;strokeWidth=10;html=1;" vertex="1" parent="raBx9LtuRQU_PqCKQz18-216">
          <mxGeometry x="366.18247126436796" y="251.43589743589746" width="70.40229885057471" height="30.172307692307694" as="geometry" />
        </mxCell>
        <mxCell id="raBx9LtuRQU_PqCKQz18-165" value="&lt;font style=&quot;font-size: 25px;&quot;&gt;Systole&lt;/font&gt;" style="text;html=1;align=center;verticalAlign=middle;whiteSpace=wrap;rounded=0;fontSize=8;" vertex="1" parent="raBx9LtuRQU_PqCKQz18-216">
          <mxGeometry x="352.0617816091956" y="218.7492307692308" width="104.68821839080461" height="40.22974358974359" as="geometry" />
        </mxCell>
        <mxCell id="raBx9LtuRQU_PqCKQz18-166" value="" style="line;strokeWidth=10;html=1;" vertex="1" parent="raBx9LtuRQU_PqCKQz18-216">
          <mxGeometry x="488.8433908045979" y="251.43589743589746" width="110.63218390804599" height="30.172307692307694" as="geometry" />
        </mxCell>
        <mxCell id="raBx9LtuRQU_PqCKQz18-171" value="&lt;font style=&quot;font-size: 25px;&quot;&gt;S1&lt;/font&gt;" style="text;html=1;align=center;verticalAlign=middle;whiteSpace=wrap;rounded=0;fontSize=8;" vertex="1" parent="raBx9LtuRQU_PqCKQz18-216">
          <mxGeometry y="90.51692307692308" width="104.68821839080461" height="40.22974358974359" as="geometry" />
        </mxCell>
        <mxCell id="raBx9LtuRQU_PqCKQz18-172" value="&lt;font style=&quot;font-size: 25px;&quot;&gt;S1&lt;/font&gt;" style="text;html=1;align=center;verticalAlign=middle;whiteSpace=wrap;rounded=0;fontSize=8;" vertex="1" parent="raBx9LtuRQU_PqCKQz18-216">
          <mxGeometry x="286.6882183908048" y="90.51692307692308" width="104.68821839080461" height="40.22974358974359" as="geometry" />
        </mxCell>
        <mxCell id="raBx9LtuRQU_PqCKQz18-173" value="" style="line;strokeWidth=10;html=1;fillColor=#e51400;fontColor=#ffffff;strokeColor=#B20000;dropTarget=0;" vertex="1" parent="raBx9LtuRQU_PqCKQz18-216">
          <mxGeometry x="315.8951149425287" y="130.74666666666667" width="46.173850574712645" height="10.057435897435898" as="geometry" />
        </mxCell>
        <mxCell id="raBx9LtuRQU_PqCKQz18-174" value="" style="shape=waypoint;sketch=0;fillStyle=solid;size=6;pointerEvents=1;points=[];fillColor=#e51400;resizable=0;rotatable=0;perimeter=centerPerimeter;snapToPoint=1;fontColor=#ffffff;strokeColor=#B20000;strokeWidth=10;fontSize=100;" vertex="1" parent="raBx9LtuRQU_PqCKQz18-216">
          <mxGeometry x="303.78591954023005" y="125.71794871794873" width="20" height="20" as="geometry" />
        </mxCell>
        <mxCell id="raBx9LtuRQU_PqCKQz18-178" value="" style="strokeWidth=20;html=1;shape=mxgraph.flowchart.extract_or_measurement;whiteSpace=wrap;fillColor=#0050ef;fontColor=#ffffff;strokeColor=#001DBC;" vertex="1" parent="raBx9LtuRQU_PqCKQz18-216">
          <mxGeometry x="461.6882183908048" y="135.7753846153846" width="2.514367816091954" height="5.028717948717949" as="geometry" />
        </mxCell>
        <mxCell id="raBx9LtuRQU_PqCKQz18-179" value="" style="endArrow=none;html=1;rounded=0;strokeWidth=10;" edge="1" parent="raBx9LtuRQU_PqCKQz18-216">
          <mxGeometry width="50" height="50" relative="1" as="geometry">
            <mxPoint x="147.89511494252892" y="142.73513025641023" as="sourcePoint" />
            <mxPoint x="198.18247126436802" y="142.81558974358975" as="targetPoint" />
          </mxGeometry>
        </mxCell>
        <mxCell id="raBx9LtuRQU_PqCKQz18-180" value="" style="endArrow=none;html=1;rounded=0;strokeWidth=10;" edge="1" parent="raBx9LtuRQU_PqCKQz18-216">
          <mxGeometry width="50" height="50" relative="1" as="geometry">
            <mxPoint x="440.5675287356324" y="137.70641230769226" as="sourcePoint" />
            <mxPoint x="490.85488505747145" y="137.78687179487181" as="targetPoint" />
          </mxGeometry>
        </mxCell>
        <mxCell id="raBx9LtuRQU_PqCKQz18-181" value="&lt;font style=&quot;font-size: 25px;&quot;&gt;S2&lt;/font&gt;" style="text;html=1;align=center;verticalAlign=middle;whiteSpace=wrap;rounded=0;fontSize=8;" vertex="1" parent="raBx9LtuRQU_PqCKQz18-216">
          <mxGeometry x="123.5158045977011" y="90.51692307692308" width="104.68821839080461" height="40.22974358974359" as="geometry" />
        </mxCell>
        <mxCell id="raBx9LtuRQU_PqCKQz18-182" value="&lt;font style=&quot;font-size: 25px;&quot;&gt;S2&lt;/font&gt;" style="text;html=1;align=center;verticalAlign=middle;whiteSpace=wrap;rounded=0;fontSize=8;" vertex="1" parent="raBx9LtuRQU_PqCKQz18-216">
          <mxGeometry x="412.6077586206896" y="90.51692307692308" width="104.68821839080461" height="40.22974358974359" as="geometry" />
        </mxCell>
        <mxCell id="raBx9LtuRQU_PqCKQz18-251" value="" style="endArrow=classic;html=1;rounded=0;strokeWidth=0.5;fillColor=#fad7ac;strokeColor=#b46504;" edge="1" parent="raBx9LtuRQU_PqCKQz18-216">
          <mxGeometry width="50" height="50" relative="1" as="geometry">
            <mxPoint x="127.69275862068992" y="142.9810010256408" as="sourcePoint" />
            <mxPoint x="97.69275862068992" y="142.9810010256408" as="targetPoint" />
          </mxGeometry>
        </mxCell>
        <mxCell id="raBx9LtuRQU_PqCKQz18-167" value="&lt;font style=&quot;font-size: 30px;&quot;&gt;Diastole&lt;/font&gt;" style="text;html=1;align=center;verticalAlign=middle;whiteSpace=wrap;rounded=0;fontSize=8;" vertex="1" parent="raBx9LtuRQU_PqCKQz18-217">
          <mxGeometry x="580.3663793103448" y="229.92028102564103" width="120.6896551724138" height="98.06" as="geometry" />
        </mxCell>
        <mxCell id="raBx9LtuRQU_PqCKQz18-218" value="" style="endArrow=classic;html=1;rounded=0;strokeWidth=10;fillColor=#fad7ac;strokeColor=#b46504;" edge="1" parent="1">
          <mxGeometry width="50" height="50" relative="1" as="geometry">
            <mxPoint x="-1560" y="989.9999999999999" as="sourcePoint" />
            <mxPoint x="-840" y="990" as="targetPoint" />
          </mxGeometry>
        </mxCell>
        <mxCell id="raBx9LtuRQU_PqCKQz18-220" value="" style="endArrow=classic;html=1;rounded=0;strokeWidth=10;fillColor=#fad7ac;strokeColor=#b46504;" edge="1" parent="1">
          <mxGeometry width="50" height="50" relative="1" as="geometry">
            <mxPoint x="-183" y="980.6299999999999" as="sourcePoint" />
            <mxPoint x="-60" y="1760" as="targetPoint" />
            <Array as="points">
              <mxPoint x="270" y="981" />
              <mxPoint x="270" y="1460" />
              <mxPoint x="270" y="1760" />
            </Array>
          </mxGeometry>
        </mxCell>
        <mxCell id="raBx9LtuRQU_PqCKQz18-221" value="" style="shape=image;verticalLabelPosition=bottom;labelBackgroundColor=default;verticalAlign=top;aspect=fixed;imageAspect=0;image=data:image/png,iVBORw0KGgoAAAANSUhEUgAAAiIAAAEuCAYAAACznnnMAAAAAXNSR0IArs4c6QAAAARnQU1BAACxjwv8YQUAAAAJcEhZcwAADsMAAA7DAcdvqGQAAB8aSURBVHhe7ZfPq2fZUcD9l1yanZPJTDLiQhI1xCx1JYFkZsJMJhkNMdGIERI0OJCQKCQRojKIILqI6ELcivhrY8CVuhAFV0LC0+rX1f26b713Tn2/derUOffzgQ8h0NzuN1W33uf+yA0AAADAJAgRAAAAmAYhAgAAANMgRAAAAGAahAgAAEBxfvvdv7n58U98fTl7IEQAAAAKs2qEiD0QIgAAAEXRCHnh1a/fvPatT9986Xu/WNYv/OnHb37y7a8SIgAAADuwaoS875O/SYgAAACszMoR8uFffy8hAgAAsCqrR8hHfuPHCBEAAIAV2SFCCBEAAIAF2SVCCBEAAIDF2ClCCBEAAICF2C1CCBEAAIBF2DFCREIEAACgOLtGiEiIAAAAFGbnCBEJEQAAgKLsHiEiIQIAAFCQM0SISIgAAAAU4ywRIhIiAAAAhThThIiECAAAQBHOFiEiIQIAAFCAM0aISIgAAABM5qwRIhIiAAAAEzlzhIiECAAAwCTOHiEiIQIAADABIuRWQgQAACAZIuSphAgAAEAiRMizEiIAAABJECFHCREAAIAEiBBbQgQAAGAwRMj9EiIAAAADIUIelhABAAAYBBHSlhABAAAYABHSJyECAAAQDBHSLyECAAAQCBHikxABAAAIggjxS4gAAAAEQIRcJiECAABwJUTI5RIiAAAAV0CEXCchAgAAcCFEyPUSIlfwr//xXzcf/KVvP/mPOFMAAMiFCInR83uMELlDpQgRAQAUPpLGQ4TE6dkVQuQxd1/yD37uyzdf/POPmcMf5d2l8gwQAPaHj6TxECGxenaFEPl/KkWILJVngACwN3wkjYcIidezK6cPkWoRIkvlGSAA7AsfSeMhQsbo2ZVTh0jFCPEOEAD2hI+k8RAh4/TsymlDpGqEeAcIAPvBR9J4iJCxenbllCFSOUK8AwSAveAjaTxEyHg9u3K6EKkeId4BAsA+8JE0HiIkR8+unCpEVogQ7wABYA/4SBoPEZKnZ1dOEyKrRIjoGSAArA8fSeMhQnL17MopQmSlCBE9AwSAteEjaTxESL6eXdk+RFaLENEzQABYFz6SxkOEzNGzK1uHyIoRInoGCABrwkfSeIiQeXp2ZdsQWTVCRM8AAWA9+EgaDxEyV8+ubBkiK0eI6BkgAKwFH0njIULm69mV7UJk9QgRPQMEgHXgI2k8REgNPbuyVYjsECGiZ4AAsAZ8JI2HCKmjZ1e2CZFdIkT0DBAA6sNH0niIkFp6dmWLENkpQkTPAAGgNnwkjYcIqadnV5YPkd0iRPQMEADqwkfSeIiQmnp2ZekQ2TFCRM8AAaAmfCSNhwipq2dXlg2RXSNE9AwQAOrBR9J4iJDaenZlyRDZOUJEzwABoBZ8JI2HCKmvZ1eWC5HdI0T0DBAA6sBH0niIkDX07MpSIXKGCBE9AwSAGvCRNB4iZB09u7JMiJwlQkTPAAFgPnwkjYcIWUvPriwRImeKENEzQACYCx9J4yFC1tOzK+VD5GwRInoGCADz4CNpPETImnp2pXSInDFCRM8AAWAOfCSNhwhZV8+ulA2Rs0aI6BkgAOTDR9J4iJC19exKyRA5c4SIngECQC58JI2/TUTI+np2pVyInD1CRM8AASAPPpLG3yYiZA89u1IqRIiQWz0DBIAcuE/jbxMRso+eXSkTIrzkT/UMEADGw326deRtIkL20rMrJUKEl/xZPQMEuJa//Nvv37z42jee7F2GK8F9euqo+REh++nZlekhwkt+1DNAgGuYESHiKnCfnnXE/IiQPfXsytQQ4SW39QwQ4FLuRshHvvRnN59+91+G+Mnv/tPNK2/9/pO9XmW3uU9Ho+dHhOyrZ1emhQgv+f16BghwCTMi5IXXvrnMbnOfbCPnR4TsrWdXpoQIL/nDegYI4GVWhLz/M99dYre5T/cbNT8iZH89u5IeIrzkbT0DBPAwM0I+8PYflN9t7tPDRsyPCDmHnl1JDRFe8j49AwToZXaEVA8R7lPba+dHhJxHz66khQgveb+eAQL0UCFCKocI96nPa+ZHhJxLz66khAgvuU/PAAFaVImQqiHCfer30vkRIefTsyvDQ4SX3K9ngAAPUSlCKoYI98nnJfMjQs6pZ1eGhggv+WV6BghwH9UiRKy029wnv975ESHn1bMrw0KEl/xyPQMEsKgYIWKV3eY+XaZnfkTIufXsypAQ4SW/Ts8AAZ6naoSIFXab+3S5vfPTCBFffuOdmw99/sul/cBbv7PkPCrbuytCeIjwkl+vZ4AAd6kcIeLs3eY+XWfv/PTPreSLr3+FCAlU/7v2EBoivOQxegYIoFSPEHHmbnOfrrd3fvrnfv4bHy3vR3/rY4/+re9/81fMnxkvs3dXhLAQ4SWP0zNAAGGFCBFn7Tb3Kcbe+emf+/gfvVxeiRH5txIisfbuihASIrzksXoGCLBKhIgzdpv7FGfv/PTPWb/4q0mIjLF3V4SrQ4SXPF7PAOHcrBQhYvZuc59i7Z2f/jnrF381CZEx9u6KcFWI8JKP0TNAOC+rRYiYudvcp3h756d/zvrFX01CZIy9uyJcHCK85OP0DBDOyYoRImbtNvdpjL3z0z9n/eKvJiEyxt5dES4KEV7ysXoGCOdj1QgRM3ab+zTO3vnpn7N+8VeTEBlj764I7hDhJR+vZ4BwLlaOEHH0bnOfxto7P/1z1i/+ahIiY+zdFcEVIrzkOXoGCOdh9QgRR+4292m8vfPTP2f94q8mITLG3l0RukOElzxPzwDhHOwQIeKo3eY+5dg7P/1z1i/+ahIiY+zdFaErRHjJc/UMEPZnlwgRR+w29ynP3vnpn7N+8VeTEBlj764IzRDhJc/XM0DYm50iRIzebe5Trr3z0z9n/eKvJiEyxt5dER4MEV7yOXoGCPuyW4SIkbvNfcq3d37656xf/NUkRMbYuyvCvSFy9yWXl+2X33395nN/8mqa8vedMUJEzwBhT3aMEDFqt4mQOfbOT/+c9Yu/moTIGHt3Rbg3RPQln+3ZIkTUnx3Oya4RIkbsNh9J8+ydn/456xd/NQmRMfbuinBviOhDXv7UV6b4wqtfe/T3//SvvmL+kDvrGSDsxc4RIkbsNh9J89SfvYX+OesXfzUJkTH27orQDBFrcBlKjMjf/7NffMn8IXfWM0DYh90jRIzYbX3G8x8vWfKRRIhg295dEQiRgnoGCHtwhggRI3Zbn2HdjQy5TYQItu3dFYEQKahngLA+Z4kQMWK39RnW3ciQ20SIYNveXREIkYJ6Bghrc6YIESN2W59h3Y0MuU2ECLbt3RWBECmoZ4CwLmeLEDFit/UZ1t3IkNtEiGDb3l0RCJGCegYIa3LGCBEjdlufYd2NDLlNhAi27d0VgRApqGeAsB5njRAxYrf1GdbdyJDbRIhg295dEQiRgnoGCGtx5ggRI3Zbn2HdjQy5TYQItu3dFYEQKahngLAOZ48QMWK39RnW3ciQ20SIYNveXREIkYJ6BghrQITcGrHb+gzrbmTIbSJEsG3vrgiESEE9A4T6ECFPjdhtfYZ1NzLkNhEi2LZ3VwRCpKCeAUJtiJBnjdhtfYZ1NzLkNhEi2LZ3VwRCpKCeAUJdiJCjEbutz7DuRobcJkIE2/buikCIFNQzQKgJEWIbsdv6DOtuZMhtIkSwbe+uCIRIQT0DhHoQIfcbsdv6DOtuZMhtIkSwbe+uCIRIQT0DhFoQIQ8bsdv6DOtuZMhtIkSwbe+uCIRIQT0DhDoQIW0jdlufYd2NDLlNhAi27d0VgRApqGeAUAMipM+I3dZnWHcjQ24TIYJte3dFIEQK6hkgzIcI6Tdit/UZ1t3IkNtEiGDb3l0RCJGCegYIcyFCfEbstj7DuhsZcpsIEWzbuysCIVJQzwBhHkSI34jd1mdYdyNDbhMhgm17d0UgRArqGSDM4W6ESCT8wjt/PcxdIkSM2G19hnU3MuQ2ESLYtndXBEKkoJ4Bwhw0QrLcIUJE/XmuQZ9h3Y0MuU2ECLbt3RWBECmoZ4AwB53RT3z2j4f6vje+9ejveelT3zF/sa9mxG7rM6y7kSG3iRDBtr27IhAiBfUMEOagM/q5r/3DUCVG5O8hRJ6iz7DuRobcJkIE2/buikCIFNQzQJiDzsiKh0gJkSP6DOtuZMhtIkSwbe+uCIRIQT0DhDnojKx4iJQQOaLPsO5GhtwmQgTb9u6KQIgU1DNAmIPOyIqHSAmRI/oM625kyG0iRLBt764IhEhBPQOEOeiMrHiIlBA5os+w7kaG3CZCBNv27opAiBTUM0CYg87IiodICZEj+gzrbmTIbSJEsG3vrgiESEE9A4Q56IyseIiUEDmiz7DuRobcJkIE2/buikCIFNQzQJiDzsiKh0gJkSP6DOtuZMhtIkSwbe+uCIRIQT0DhDnojKx4iJQQOaLPsO5GhtwmQgTb9u6KQIgU1DNAmIPOyIqHSAmRI/oM625kyG0iRLBt764IhEhBPQOEOeiMrHiIlBA5os+w7kaG3CZCBNv27opAiBTUM0CYg87IiodICZEj+gzrbmTIbSJEsG3vrgiESEE9A4Q56IyseIiUEDmiz7DuRobcJkIE2/buikCIFNQzQJiDzsiKh0gJkSP6DOtuZMhtIkSwbe+uCIRIQT0DhDnojKx4iJQQOaLPsO5GhtwmQgTb9u6KQIgU1DNAmIPOyIqHSAmRI/oM625kyG0iRLBt764IhEhBPQOEOeiMrHiIlBA5os+w7kaG3CZCBNv27opAiBTUM0CYg87IiodICZEj+gzrbmTIbSJEsG3vrgiESEE9A4Q56IyseIiUEDmiz7DuRobcJkIE2/buikCIFNQzQJiDzsiKh0gJkSP6DOtuZMhtIkSwbe+uCIRIQT0DhDnojKx4iJQQOaLPsO5GhtwmQgTb9u6KQIgU1DNAmIPOyIqHSAmRI/oM625kyG0iRLBt764IhEhBPQOEOeiMrHiIlBA5os+w7kaG3CZCBNv27opAiBTUM0CYg87IiodICZEj+gzrbmTIbSJEsG3vrgiESEE9A4Q56IyseIiUEDmiz7DuRobcJkIE2/buikCIFNQzQJiDzsiKh0gJkSP6DOtuZMhtIkSwbe+uCIRIQT0DhDnojKx4iJQQOaLPsO5GhtwmQgTb9u6KQIgU1DNAmIPOyIqHSAmRI/oM625kyG0iRLBt764IhEhBPQOEOeiMrHiIlBA5os+w7kaG3CZCBNv27opAiBTUM0CYg87IiodICZEj+gzrbmTIbSJEsG3vrgiESEE9A4Q56IyseIiUEDmiz7DuRobcJkIE2/buikCIFNQzQJiDzsiKh0gJkSP6DOtuZMhtIkSwbe+uCIRIQT0DhDnojKx4iJQQOaLPsO5GhtwmQgTb9u6KQIgU1DNAmIPOyIqHSAmRI/oM625kyG0iRLBt764IhEhBPQOEOeiMrHiIlBA5os+w7kaG3CZCBNv27opAiBTUM0CYg87IiodICZEj+gzrbmTIbSJEsG3vrgiESEE9A4Q56IyseIiUEDmiz7DuRobcJkIE2/buikCIFNQzQA8/+Ld/vvmf77z6+P/BNeiMrHiIlBA5os+w7kaG3CZCBNv27opAiBTUM8AeNED+8+0ffSRcj87IiodICZEj+gzrbmTIbSJEsG3vrgiESEE9A3yI5wOEEIlDZ2TFQ6SEyBF9hnU3MuQ2ESLYtndXBEKkoJ4BWtwXICpcj87IiodICZEj+gzrbmTIbSJEsG3vrgiESEE9A7xLK0DObiQ6IyseIiVEjugzrLuRIbeJEMG2vbsiECIF9QxQIED6jERnZMVDpITIEX2GdTcy5DYRIti2d1cEQqSgngEK//uPf3Hz31/9sPnLF58aic7IiodICZEj+gzrbmTIbSJEsG3vrgiESEE9A7wLQfKwkeiMrHiIlBA5os+w7kaG3CZCBNv27opAiBTUM0CLVpDA9eiMrHiIlBA5os+w7kaG3CZCBNv27opAiBTUM8CHuC9I4Hp0RlY8REqIHNFnWHcjQ24TIYJte3dFIEQK6hlgD88HCVyPzsiKh0gJkSP6DOtuZMhtIkSwbe+uCIRIQT0D9KBBAtejM7LiIVJC5Ig+w7obGXKbCBFs27srAiFSUM8AYQ46IyseIiVEjugzrLuRIbeJEMG2vbsiECIF9QwQ5qAzsuIhUkLkiD7DuhsZcpsIEWzbuysCIVJQzwBhDjojKx4iJUSO6DOsu5Eht4kQwba9uyIQIgX1DBDmoDOy4iFSQuSIPsO6GxlymwgRbNu7KwIhUlDPAGEOOiMrHiIlRI7oM6y7kSG3iRDBtr27IhAiBfUMEOagM7LiIVJC5Ig+w7obGXKbCBFs27srAiFSUM8AYQ46IyseIiVEjugzrLuRIbeJEMG2vbsiECIF9QwQ5qAzsuIhUkLkiD7DuhsZcpsIEWzbuysCIVJQzwBhDjojKx4iJUSO6DOsu5Eht4kQwba9uyIQIgX1DBDmoDOy4iFSQuSIPsO6GxlymwgRbNu7KwIhUlDPAGEOOiMrHiIlRI7oM6y7kSG3iRDBtr27IhAiBfUMEOagM7LiIVJC5Ig+w7obGXKbCBFs27srAiFSUM8AYQ46IyseIiVEjugzrLuRIbeJEMG2vbsiECIF9QwQ5qAzsuIhUkLkiD7DuhsZcpsIEWzbuysCIVJQzwBhDjojKx4iJUSO6DOsu5Eht4kQwba9uyIQIgX1DBDmoDOy4iFSQuSIPsO6GxlymwgRbNu7KwIhUlDPAGEOOiMrHiIlRI7oM6y7kSG3iRDBtr27IhAiBfUMEOagM7LiIVJC5Ig+w7obGXKbCBFs27srAiFSUM8AYQ46IyseIiVEjugzrLuRIbeJEMG2vbsiECIF9QwQ5qAzsuIhUkLkiD7DuhsZcpsIEWzbuysCIVLO97gGCHPQGVnxECkhckSfYd2NDAkRQgTb9u6KQIiU8j03r7z1mUc/9ytv/t7jSUBF9P2w4iFSQuSIPsO6GxnykUSIYNveXREIkTI+GyF/9/1/fzwJqIi+H1Y8REqIHNFnWHcjQz6S2h9Js2fkkRAZo+5AD4RICYmQ1dD3w4qHSAmRI/oM625kyEdS+z7NnpFHQmSMugM9ECLTJUJWRN8PKx4i3SlEXnrz20/+u12DPsO6GxnykdRm9ow8EiJj1B3ogRCZKhGyKvp+WPEQ6S4hcjdC/vCv/v7xf8XL0OdYdyNDPpLazJ6RR0JkjLoDPRAi0yRCVkbfDyseIt0hRCIjRNBnWXcjQz6S2syekUdCZIy6Az0QIlMkQlZH3w8rHiJdPUSiI0TQ51l3I0M+ktrMnpFHQmSMugM9ECLpEiE7oO+HFQ+RrhwiIyJE0GdadyNDPpLazJ6RR0JkjLoDPRAiqRIhu6DvhxUPka4aIqMiRNDnWncjQz6S2syekUdCZIy6Az0QImkSITuh74cVD5GuGCIjI0TQZ1t3I0M+ktrMnpFHQmSMugM9ECIpEiG7oe+HFQ+RrhYioyNE0OdbdyNDPpLazJ6RR0Ik3g994aee7EAPhMhwiZAd0ffDiodIVwqRjAgR9O+w7kaGfCS1mT0jj4RIrBIhL7z6zqP/pp/93e893oiHIUSGSoTsir4fVjxEukqIZEWIoH+PdTcy5COpzewZeSRE4nw+Qn7wwx8+3oiHIUSGSYTsjL4fVjxEukKIZEaIoH+XdTcy5COpzewZeSREYrw0QgRCZIhEyO7o+2HFQ6TVQyQ7QgT9+6y7kSEfSW1mz8gjIXK910SIQIiES4ScAX0/rHiItHKIzIgQQf9O625kyEdSm9kz8kiIXOe1ESIQIqESIWdB3w8rHiKtGiKzIkTQv9e6GxnykdRm9ow8EiKXGxEhAiESJhFyJvT9sOIh0oohMjNCBP27rbuRIR9JbWbPyCMhcplRESIQIiESIWdD3w8rHiKtFiKzI0TQv9+6GxnykdRm9ow8EiJ+IyNEIESulgg5I/p+WPEQaaUQqRAhgv4brLuRIR9JbWbPyCMh4jM6QgRC5CqJkLOi74cVD5FWCZEqESLov8O6GxnykdRm9ow8EiL9jogQgRC5WCLkzOj7YcVDpBVCpFKECPpvse5GhnwktZk9I4+ESJ+jIkQgRC6SCDk7+n5Y8RDp7BCpFiGC/nusu5EhH0ltZs/IIyHSdmSECISIWyIEzhEiFSNE0H+TdTcy5COpzewZeSREHnZ0hAiEiEsiBG7R98OKh0hnhUjVCBH032XdjQz5SGoze0YeCZH7zYgQgRDplgiBp+j7YcVDpDNCpHKECPpvs+5GhnwktZk9I4+EiG1WhAiESJdECDyLvh9WPESaHSLVI0TQf591NzLkI6nN7Bl5JESOZkaIQIg0JULgiL4fVjxEmhkiK0SIoP9G625kyEdSm9kz8kiIPGt2hAiEyIMSIWCj74cVD5FmhcgqESLov9O6GxnykdRm9ow8EiJPnREhAiFyr0QI3I++H1Y8RJoRIitFiKD/VutuZMhHUpvZM/JIiNw6K0IEQsSUCIGH0ffDiodIR4fIahEi6L/XuhsZ8pHUZvaMPBIicyNEIEQOEiHQRt8PKx4iHRkiK0aIoP9m625kyEdSm9kz8nj2EJkdIQIh8oxECPSh74cVD5GOCpFVI0TQf7d1NzLkI6nN7Bl5PHOIVIgQgRB5IhEC/ej7YcVDpCNCZOUIEfTfbt2NDPlIajN7Rh7PGiJVIkQgRB5JhIAPfT+seIg0OkRWjxBB//3W3ciQj6Q2s2fk8YwhUilCBEKECIEL0PfDiodII0NkhwgR9Gew7kaGfCS1mT0jj2cLkWoRIpw8RIgQuAx9P6x4iDQqRHaJEEF/DutuZMhHUpvZM/J4phCpGCHCiUOECIHL0ffDiodII0JkpwgR9Gex7kaGfCS1mT0jj2cJkaoRIpw0RIgQuA59P6x4iPTaENktQgT9eay7kSEfSW1mz8jjGUKkcoQIJwwRIgSuR98PKx4ivSZEdowQQX8m625kyEdSm9kz8rh7iFSPEOFkIUKEQAz6fljxEOmlIbJrhAj6c1l3I0M+ktrMnpHHnUNkhQgRThQiRAjEoe+HFQ+RXhIiO0eIoD+bdTcy5COpzewZedw1RFaJEOEkIUKEQCz6fljxEKk3RHaPEEF/PutuZMhHUpvZM/K4Y4isFCHCCUKECIF49P2w4iFST4icIUIE/Rmtu5EhH0ltZs/I424hslqECJuHCBECY9D3w4qHSHtD5CwRIujPad2NDPlIajN7Rh53CpEVI0TYOESIEBiHvh9WPETaEyJnihBBf1brbmTIR1Kb2TPyuEuIrBohwqYhQoTAWPT9sOIh0laInC1CBP15rbuRIR9JbWbPyOMOIbJyhAgbhggRAuPR98OKh0gfCpEzRoigP7N1NzLkI6nN7Bl5XD1EVo8QYbMQIUIgB30/rHiI9L4QOWuECPpzW3cjQz6S2syekceVQ2SHCBE2ChEiBPLQ98OKh0itEDlzhAj6s1t3I0M+ktrMnpHHVUNklwgRNgkRIgRy0ffDiodInw+Rs0eIoD+/dTcy5COpzewZeVwxRHaKEGGDECFCIB99P6x4iPRuiBAht+h/A+tuZMhHUpvZM/K4WojsFiHC4iFChMAc9P2w4iFSDZH3vvbNJ3/nmSNE0P8O1t3IkI+kNrNn5HGlENkxQoSFQ4QIgXno+2HFQ6QaIurZI0TQ/xbW3ciQj6Q2s2fkcZUQ2TVChEVDhAiBuej7kSkRcov+97DuRoZ8JLWZPSOPK4TIzhEiLBgivOQwH30/siRCnqL/Tay7kSEfSW1mz8hj9RDZPUKExUKElxzg7NS8Tdynu8yekcfKIXKGCBEWChFecgDgI2kFZs/IY9UQOUuECIuECC85ANxS6zbJLw3u0/PMnpHHiiFypggRyofIz/zay7zkAPCEKreJj6T7mT0jj9VC5GwRIpQPkZff+Pyj/+UlBwChym3iI+l+Zs/IY6UQOWOECOVDROQlBwClym3iI+l+Zs/IY5UQOWuECM0QmS0vOQDcRW+D9UslQz6S2syekccKIXLmCBFKhwgvOQA8j3UrZsh9uh/9b2T94q/m7BA5e4QI94YIAEBF9JfcTImQh9H/TtYv/mrODBEi5BZCBAAAQiFE2hIhTyFEAAAgFELkYYmQZyFEAAAgFELkfomQI4QIAACEQojYEiE2hAgAAIRCiBwlQu6HEAEAgFAIkWclQh6GEAEAgFAIkacSIW0IEQAACIUQuZUI6YMQAQCAUAgRIsQDIQIAAKGcPUSIEB+ECAAAhHLmECFC/BAiAAAQyllDhAi5DEIEAABCOWOIECGXQ4gAAEAoZwsRIuQ6CBEAAAjlTCFChFwPIQIAAKGcJUSIkBgIEQAACOUMIUKExEGIAABAKLuHCBESCyECAACh7BwiREg8hAgAAISya4gQIWMgRAAAIJQdQ4QIGQchAgAAoewWIkTIWAgRAAAIZacQIULGQ4gAAEAou4QIEZIDIQIAAKHsECJESB6ECAAAhLJ6iBAhuRAiAAAQysohQoTkQ4gAAEAoq4YIETIHQgQAAEJZMURefP0rRMgkCBEAAAhlxRBRiZB8CBEAAAjl7i/2lSRC5kCIAABAKNYv+eoSIfMgRAAAAGAahAgAAABMgxABAACAaRAiAAAAMImbm/8DXz29jWDk83gAAAAASUVORK5CYII=;" vertex="1" parent="1">
          <mxGeometry x="-2260" y="1490" width="1012.45" height="560" as="geometry" />
        </mxCell>
        <mxCell id="raBx9LtuRQU_PqCKQz18-246" value="" style="group;aspect=fixed;" vertex="1" connectable="0" parent="1">
          <mxGeometry x="-3670" y="1430" width="1153.04" height="680" as="geometry" />
        </mxCell>
        <mxCell id="raBx9LtuRQU_PqCKQz18-225" value="" style="rounded=0;whiteSpace=wrap;html=1;fillColor=none;strokeWidth=5;" vertex="1" parent="raBx9LtuRQU_PqCKQz18-246">
          <mxGeometry x="38.22232044198895" width="1082.9657458563536" height="339.99999999999994" as="geometry" />
        </mxCell>
        <mxCell id="raBx9LtuRQU_PqCKQz18-226" value="" style="rounded=0;whiteSpace=wrap;html=1;fillColor=#b1ddf0;strokeColor=#10739e;strokeWidth=0.5;" vertex="1" parent="raBx9LtuRQU_PqCKQz18-246">
          <mxGeometry x="1041.9241988950275" y="92.28571428571428" width="31.85193370165745" height="222.79714285714277" as="geometry" />
        </mxCell>
        <mxCell id="raBx9LtuRQU_PqCKQz18-227" value="&lt;font style=&quot;font-size: 50px;&quot;&gt;Classification&amp;nbsp;&lt;/font&gt;" style="text;html=1;align=center;verticalAlign=middle;whiteSpace=wrap;rounded=0;" vertex="1" parent="raBx9LtuRQU_PqCKQz18-246">
          <mxGeometry x="570.1495400368324" y="23.939799530009818" width="382.22320441988956" height="48.57142857142856" as="geometry" />
        </mxCell>
        <mxCell id="raBx9LtuRQU_PqCKQz18-228" value="" style="shape=curlyBracket;whiteSpace=wrap;html=1;rounded=1;flipH=1;labelPosition=right;verticalLabelPosition=middle;align=left;verticalAlign=middle;strokeWidth=10;" vertex="1" parent="raBx9LtuRQU_PqCKQz18-246">
          <mxGeometry x="939.9980110497237" y="101.99571428571451" width="101.92618784530387" height="194.28571428571425" as="geometry" />
        </mxCell>
        <mxCell id="raBx9LtuRQU_PqCKQz18-229" value="" style="ellipse;shape=doubleEllipse;whiteSpace=wrap;html=1;aspect=fixed;strokeWidth=1;" vertex="1" parent="raBx9LtuRQU_PqCKQz18-246">
          <mxGeometry x="861.0025966850828" y="72.51000000000056" width="70" height="70" as="geometry" />
        </mxCell>
        <mxCell id="raBx9LtuRQU_PqCKQz18-230" value="" style="ellipse;shape=doubleEllipse;whiteSpace=wrap;html=1;aspect=fixed;fillColor=#FF3333;" vertex="1" parent="raBx9LtuRQU_PqCKQz18-246">
          <mxGeometry x="862.8125966850829" y="253.08714285714342" width="70" height="70" as="geometry" />
        </mxCell>
        <mxCell id="raBx9LtuRQU_PqCKQz18-231" value="&lt;font style=&quot;font-size: 50px;&quot;&gt;Linear&lt;/font&gt;" style="text;html=1;align=center;verticalAlign=middle;whiteSpace=wrap;rounded=0;" vertex="1" parent="raBx9LtuRQU_PqCKQz18-246">
          <mxGeometry x="952.3683977900553" y="19.22571428571459" width="191.11160220994478" height="57.9942857142857" as="geometry" />
        </mxCell>
        <mxCell id="raBx9LtuRQU_PqCKQz18-232" value="&lt;font style=&quot;font-size: 50px;&quot;&gt;Patent&lt;/font&gt;" style="text;html=1;align=center;verticalAlign=middle;whiteSpace=wrap;rounded=0;" vertex="1" parent="raBx9LtuRQU_PqCKQz18-246">
          <mxGeometry x="630.6682872928176" y="57.65428571428629" width="254.8154696132596" height="97.14285714285712" as="geometry" />
        </mxCell>
        <mxCell id="raBx9LtuRQU_PqCKQz18-233" value="&lt;font style=&quot;font-size: 50px;&quot;&gt;Stenosis&lt;/font&gt;" style="text;html=1;align=center;verticalAlign=middle;whiteSpace=wrap;rounded=0;" vertex="1" parent="raBx9LtuRQU_PqCKQz18-246">
          <mxGeometry x="630.6682872928176" y="234.94000000000054" width="254.8154696132596" height="97.14285714285712" as="geometry" />
        </mxCell>
        <mxCell id="raBx9LtuRQU_PqCKQz18-234" value="" style="shape=curlyBracket;whiteSpace=wrap;html=1;rounded=1;labelPosition=left;verticalLabelPosition=middle;align=right;verticalAlign=middle;strokeWidth=10;" vertex="1" parent="raBx9LtuRQU_PqCKQz18-246">
          <mxGeometry x="560.5940331491712" y="102" width="101.92618784530387" height="194.28571428571425" as="geometry" />
        </mxCell>
        <mxCell id="raBx9LtuRQU_PqCKQz18-235" value="" style="endArrow=classic;html=1;rounded=0;strokeWidth=10;fillColor=#fad7ac;strokeColor=#b46504;" edge="1" parent="raBx9LtuRQU_PqCKQz18-246">
          <mxGeometry width="50" height="50" relative="1" as="geometry">
            <mxPoint x="586.0755801104972" y="199.122857142858" as="sourcePoint" />
            <mxPoint x="490" y="199" as="targetPoint" />
          </mxGeometry>
        </mxCell>
        <mxCell id="raBx9LtuRQU_PqCKQz18-236" value="&lt;font style=&quot;font-size: 50px;&quot;&gt;&lt;i data-sider-select-id=&quot;79c6a301-8a40-4184-b36e-ff74faafcca7&quot;&gt;Lc=C&lt;/i&gt;rossentrophy()&lt;/font&gt;" style="text;html=1;align=center;verticalAlign=middle;whiteSpace=wrap;rounded=0;" vertex="1" parent="raBx9LtuRQU_PqCKQz18-246">
          <mxGeometry x="74.00480117863721" y="149.94000000000057" width="382.22320441988956" height="77.22857142857141" as="geometry" />
        </mxCell>
        <mxCell id="raBx9LtuRQU_PqCKQz18-237" value="" style="rounded=0;whiteSpace=wrap;html=1;fillColor=none;strokeWidth=5;" vertex="1" parent="raBx9LtuRQU_PqCKQz18-246">
          <mxGeometry x="38.0371270718232" y="339.99999999999994" width="1082.9657458563536" height="339.99999999999994" as="geometry" />
        </mxCell>
        <mxCell id="raBx9LtuRQU_PqCKQz18-238" value="" style="rounded=0;whiteSpace=wrap;html=1;fillColor=#b1ddf0;strokeColor=#10739e;strokeWidth=0.5;" vertex="1" parent="raBx9LtuRQU_PqCKQz18-246">
          <mxGeometry x="1054.2990055248617" y="414.94000000000045" width="31.85193370165745" height="222.79714285714277" as="geometry" />
        </mxCell>
        <mxCell id="raBx9LtuRQU_PqCKQz18-239" value="&lt;font style=&quot;font-size: 50px;&quot;&gt;Linear&lt;/font&gt;" style="text;html=1;align=center;verticalAlign=middle;whiteSpace=wrap;rounded=0;" vertex="1" parent="raBx9LtuRQU_PqCKQz18-246">
          <mxGeometry x="948.9328176795578" y="349.99999999999994" width="191.11160220994478" height="57.9942857142857" as="geometry" />
        </mxCell>
        <mxCell id="raBx9LtuRQU_PqCKQz18-240" value="" style="ellipse;shape=doubleEllipse;whiteSpace=wrap;html=1;aspect=fixed;fillColor=#fad7ac;strokeColor=#b46504;" vertex="1" parent="raBx9LtuRQU_PqCKQz18-246">
          <mxGeometry x="856.8170165745855" y="492.3728571428568" width="70" height="70" as="geometry" />
        </mxCell>
        <mxCell id="raBx9LtuRQU_PqCKQz18-241" value="" style="endArrow=classic;html=1;rounded=0;strokeWidth=10;fillColor=#fad7ac;strokeColor=#b46504;exitX=-0.049;exitY=0.504;exitDx=0;exitDy=0;exitPerimeter=0;entryX=1;entryY=0.5;entryDx=0;entryDy=0;" edge="1" parent="raBx9LtuRQU_PqCKQz18-246" source="raBx9LtuRQU_PqCKQz18-238" target="raBx9LtuRQU_PqCKQz18-240">
          <mxGeometry width="50" height="50" relative="1" as="geometry">
            <mxPoint x="1060.6693922651934" y="539.1428571428571" as="sourcePoint" />
            <mxPoint x="946.0024309392265" y="537.2971428571434" as="targetPoint" />
          </mxGeometry>
        </mxCell>
        <mxCell id="raBx9LtuRQU_PqCKQz18-242" value="&lt;font style=&quot;font-size: 50px;&quot;&gt;Stenosis Degree&amp;nbsp;&lt;/font&gt;" style="text;html=1;align=center;verticalAlign=middle;whiteSpace=wrap;rounded=0;" vertex="1" parent="raBx9LtuRQU_PqCKQz18-246">
          <mxGeometry x="639.9981944751377" y="395.2314285714285" width="465.0382320441989" height="97.14285714285712" as="geometry" />
        </mxCell>
        <mxCell id="raBx9LtuRQU_PqCKQz18-243" value="" style="endArrow=classic;html=1;rounded=0;strokeWidth=10;fillColor=#fad7ac;strokeColor=#b46504;exitX=0;exitY=0.5;exitDx=0;exitDy=0;entryX=1;entryY=0.5;entryDx=0;entryDy=0;" edge="1" parent="raBx9LtuRQU_PqCKQz18-246" source="raBx9LtuRQU_PqCKQz18-240" target="raBx9LtuRQU_PqCKQz18-245">
          <mxGeometry width="50" height="50" relative="1" as="geometry">
            <mxPoint x="684.8165745856353" y="532.4399999999994" as="sourcePoint" />
            <mxPoint x="799.4835359116021" y="534.2857142857142" as="targetPoint" />
          </mxGeometry>
        </mxCell>
        <mxCell id="raBx9LtuRQU_PqCKQz18-244" value="&lt;font style=&quot;font-size: 50px;&quot;&gt;Prediction&lt;/font&gt;" style="text;html=1;align=center;verticalAlign=middle;whiteSpace=wrap;rounded=0;" vertex="1" parent="raBx9LtuRQU_PqCKQz18-246">
          <mxGeometry x="149.99685141804784" y="368.9964090256047" width="382.22320441988956" height="48.57142857142856" as="geometry" />
        </mxCell>
        <mxCell id="raBx9LtuRQU_PqCKQz18-245" value="&lt;font style=&quot;font-size: 50px;&quot;&gt;&lt;font style=&quot;font-size: 50px;&quot;&gt;&lt;i data-sider-select-id=&quot;b9a4a390-9030-4aae-bc34-031b62809867&quot; style=&quot;&quot;&gt;Lp=α * L&lt;/i&gt;1_weighted&lt;sub style=&quot;&quot;&gt;s&amp;lt;0.4&lt;/sub&gt;&lt;/font&gt;&lt;/font&gt;&lt;div style=&quot;font-size: 50px;&quot;&gt;&lt;font style=&quot;font-size: 50px;&quot;&gt;&lt;font style=&quot;font-size: 50px;&quot;&gt;+(1-&lt;/font&gt;&lt;i style=&quot;border-color: var(--border-color);&quot;&gt;α) * L&lt;/i&gt;&lt;font style=&quot;font-size: 50px;&quot;&gt;1_weighted&lt;sub style=&quot;border-color: var(--border-color);&quot;&gt;s&amp;gt;=0.4&lt;/sub&gt;&lt;/font&gt;&lt;/font&gt;&lt;/div&gt;" style="text;html=1;align=center;verticalAlign=middle;whiteSpace=wrap;rounded=0;" vertex="1" parent="raBx9LtuRQU_PqCKQz18-246">
          <mxGeometry x="32.5199999999998" y="431" width="630" height="192.75" as="geometry" />
        </mxCell>
        <mxCell id="raBx9LtuRQU_PqCKQz18-250" value="" style="endArrow=classic;html=1;rounded=0;strokeWidth=10;fillColor=#fad7ac;strokeColor=#b46504;" edge="1" parent="1">
          <mxGeometry width="50" height="50" relative="1" as="geometry">
            <mxPoint x="-928" y="1780" as="sourcePoint" />
            <mxPoint x="-1245.55" y="1780.1399999999999" as="targetPoint" />
          </mxGeometry>
        </mxCell>
        <mxCell id="raBx9LtuRQU_PqCKQz18-253" value="" style="endArrow=classic;html=1;rounded=0;strokeWidth=10;fillColor=#fad7ac;strokeColor=#b46504;" edge="1" parent="1">
          <mxGeometry width="50" height="50" relative="1" as="geometry">
            <mxPoint x="-2270" y="1768" as="sourcePoint" />
            <mxPoint x="-2560" y="1767.6399999999999" as="targetPoint" />
          </mxGeometry>
        </mxCell>
        <mxCell id="raBx9LtuRQU_PqCKQz18-254" value="&lt;font style=&quot;font-size: 60px;&quot;&gt;Output&lt;/font&gt;" style="text;html=1;align=center;verticalAlign=middle;whiteSpace=wrap;rounded=0;fillColor=#d5e8d4;gradientColor=#97d077;strokeColor=#82b366;" vertex="1" parent="1">
          <mxGeometry x="-3190" y="2130.35" width="270" height="80" as="geometry" />
        </mxCell>
        <mxCell id="raBx9LtuRQU_PqCKQz18-255" value="&lt;font style=&quot;font-size: 60px;&quot;&gt;Model&lt;/font&gt;" style="text;html=1;align=center;verticalAlign=middle;whiteSpace=wrap;rounded=0;fillColor=#d5e8d4;gradientColor=#97d077;strokeColor=#82b366;" vertex="1" parent="1">
          <mxGeometry x="-1910" y="2110" width="220" height="90" as="geometry" />
        </mxCell>
        <mxCell id="raBx9LtuRQU_PqCKQz18-256" value="&lt;font style=&quot;font-size: 60px;&quot;&gt;Feature Extraction&lt;/font&gt;" style="text;html=1;align=center;verticalAlign=middle;whiteSpace=wrap;rounded=0;fillColor=#d5e8d4;gradientColor=#97d077;strokeColor=#82b366;strokeWidth=0.2;dashed=1;" vertex="1" parent="1">
          <mxGeometry x="-20" y="1900" width="310" height="150" as="geometry" />
        </mxCell>
        <mxCell id="raBx9LtuRQU_PqCKQz18-264" value="" style="rounded=0;whiteSpace=wrap;html=1;fillColor=none;strokeColor=#FF0000;strokeWidth=10;dashed=1;" vertex="1" parent="1">
          <mxGeometry x="-3687" y="524" width="4041" height="1789" as="geometry" />
        </mxCell>
      </root>
    </mxGraphModel>
  </diagram>
</mxfile>
